<?xml version="1.0" encoding="utf-8"?>
<!-- Generator: Adobe Illustrator 19.2.0, SVG Export Plug-In . SVG Version: 6.00 Build 0)  -->
<svg version="1.1" id="Warstwa_1" xmlns="http://www.w3.org/2000/svg" xmlns:xlink="http://www.w3.org/1999/xlink" x="0px" y="0px"
	 viewBox="0 0 1080 1080" style="enable-background:new 0 0 1080 1080;" xml:space="preserve">
<style type="text/css">
	.st0{fill:none;stroke:#000000;stroke-width:1.8413;stroke-miterlimit:10;}
</style>
<g>
	<g id="XMLID_2_">
		<g>
			<path d="M492.9,809.1c-1.2-1.8-2.1-5.6-1.9-8.3c0.3-2.9,1.3-6.2,4.1-6.9c1.1-0.3,2.3-0.1,3.5,0.2c6.6,1.4,13.2,2.7,19.8,4.1
				c0.6,0.1,1.2,0.3,1.6,0.7c0.3,0.4,0.4,1,0.5,1.5c0.2,2,0,8.1-4.2,10.6L492.9,809.1z"/>
		</g>
		<g>
			<path class="st0" d="M492.9,809.1c-1.2-1.8-2.1-5.6-1.9-8.3c0.3-2.9,1.3-6.2,4.1-6.9c1.1-0.3,2.3-0.1,3.5,0.2
				c6.6,1.4,13.2,2.7,19.8,4.1c0.6,0.1,1.2,0.3,1.6,0.7c0.3,0.4,0.4,1,0.5,1.5c0.2,2,0,8.1-4.2,10.6c0,0-0.1,0-0.1,0.1"/>
		</g>
	</g>
	<g>
		<g id="XMLID_1_">
			<g>
				<path d="M685.5,404.3c-0.4-6.7-0.5-13.5-0.4-20.3C687,390.6,687.2,397.6,685.5,404.3z"/>
				<path d="M682.7,397.3c0.6,0.9,1.2,2,1.1,3.1c-0.1,1.1-1,2.2-2.1,2.2c-0.3,0-0.5-0.1-0.7-0.2c-0.8-0.5-0.7-1.6-0.5-2.6
					c0-0.1,0-0.1,0-0.2c0.3-1.4,0.6-2.9,0.9-4.3C681.8,396.1,682.3,396.7,682.7,397.3z"/>
				<path d="M681.4,395.4c-0.3,1.4-0.6,2.8-0.9,4.3c0,0.1,0,0.1,0,0.2c-1.1-1-1.6-2.6-1.6-4.1c-0.1-1.9,0.5-3.7,1.1-5.5
					c0.6-1.8,1.3-3.7,3-4.6c-1.5,2.7-3.1,5.9-2,8.8C681,394.8,681.2,395.1,681.4,395.4z"/>
				<path d="M685.1,384c-0.2,6.8-0.1,13.5,0.4,20.3C687.2,397.6,687,390.6,685.1,384z M682.9,385.6c-1.7,0.8-2.4,2.8-3,4.6
					c-0.6,1.8-1.2,3.6-1.1,5.5c0.1,1.5,0.6,3.1,1.6,4.1c-0.2,0.9-0.2,2,0.5,2.6c0.2,0.1,0.5,0.2,0.7,0.2c1.1,0.1,2.1-1,2.1-2.2
					c0.1-1.1-0.5-2.2-1.1-3.1c-0.4-0.7-0.9-1.3-1.3-2c-0.2-0.3-0.3-0.6-0.5-0.9C679.7,391.6,681.3,388.4,682.9,385.6z M677.6,389.2
					c2.1-5.6,6.4-13.8,4.6-19.5c7.2,9.2,9.5,22,6.5,33.3c-0.5,2-1.2,3.8-2,5.7c-0.4,0.9-0.8,1.7-1.3,2.6
					C678,406.9,674.6,397.1,677.6,389.2z"/>
				<path d="M573.2,724.3c12.6,10.9,17,11.7,10.2,27.9c-0.1,0.1-0.1,0.2-0.2,0.3c-0.4,0.6-0.7,1.2-1.1,1.7c-0.9,1.4-2.1,2.6-3.3,3.7
					c-7.9,6.2-16.7-3-20-5.4c-3.9-3-7.5-7.2-7.2-12.1c0.2-3.1,2-5.8,3.9-8.2c2.7-3.3,5.9-6.1,9.5-8.4c1-0.6,2-1.3,3.2-1.4
					C570,722.2,571.8,723.1,573.2,724.3z"/>
				<path d="M582.1,754.2c0.4-0.6,0.8-1.1,1.1-1.7c-1.4,2.5-2.9,4.2-4.4,5.4C580,756.8,581.2,755.6,582.1,754.2z"/>
				<path d="M571.5,770.7c0.3,7.3,0.1,15.7-5.7,20.1c-3.7,2.8-8.9,3-13.2,1.3c-4.3-1.7-7.7-5.2-10.3-9c-0.9-1.3-1.7-2.8-1.6-4.4
					c0.1-2.2,2-3.9,3.5-5.6c3.4-3.5,5.9-7.9,7.3-12.6C553.3,761,571.4,768.6,571.5,770.7z"/>
				<path d="M538.9,510.3c3.1,1.3,1.6,5.4,1.3,6.7c-1.4,7.3-1.5,11.5-4.5,15.8c-4.5,6.3-29.8,3.4-31.7,0c-1.9-3.4-3-9.9-1.9-13.6
					c1.6-5.5,2.7-8.2,8.3-8.8C515.9,509.8,533.6,508.2,538.9,510.3z"/>
				<path d="M506.2,618.4l-0.3,0.9c-2.5,3.4-5,7.2-9.4,7.2c-1,0-2-0.3-3-0.7c-4-1.6-7.8-3.7-10.6-6.9c-2.8-3.3-6.4-5.7-5.2-9.8
					l0.5-1.2C487.5,611.4,496.8,615,506.2,618.4z"/>
				<path d="M490.7,569.6c1.8,3.9,0.3,9.9-1.7,13.8c-3.3,6.3-6.1,10-13.2,9.2c-4-0.4-8.3-2-11.7-4.3c-1.2-0.8-4.9-1.4-7-3.4
					c-3.1-2.9-7.2-9.1-4.9-12.6c1.7-2.6,2.9-7.6,5.3-9.6c2.4-2,7.9-7,10.9-6.5C474.7,557.1,485.5,562.9,490.7,569.6z"/>
			</g>
			<g>
				<path class="st0" d="M618.8,230.9c-0.8-0.1-1.5-0.1-2.2-0.1c-3.3,0-5.7,0.8-8.6,3.1c-3.4,2.6-3.6,5.8-2.7,10
					c0.9,4.2,3.4,7.9,4.6,8.6c1.6,0.8,5.1,2.3,6.5,2.3c5.6-0.3,10.8-0.9,13.9-5.5c3-4.6,3-11.4-1-15.1c-3.3-3.1-8.1-3.5-12.6-3.4
					c-0.2,0-0.4,0-0.6,0"/>
				<path class="st0" d="M579.6,237.6c-3.2-0.4-6.1,1.4-5.9,4.4c0.2,3,1.1,4.4,3.8,5.7c0.8,0.4,4.8-0.7,5.5-1.2
					C584.5,245.4,585.2,238.1,579.6,237.6z"/>
				<path class="st0" d="M593.7,242.5c0.9-1.1-1.8-1.7-2.4-0.7C590.8,242.5,592,244.7,593.7,242.5z"/>
				<path class="st0" d="M583.5,217.3c-8.6,0-13,2.2-16.1,8.1c-1.2,2.3-1.1,5-1,7.5c0.2,4.1,0.4,8.1,0.6,12.2
					c0.1,1.3,0.1,2.7,0.8,3.8c0.7,1.1,1.6,5.3,4.9,6.1c14.3,3.7,32.2,2.4,50.7,2c3-0.1,8.6-1,11.4-2.2c6.3-2.7,7.7-10.7,7.5-17.7
					c-0.2-6.4-0.5-15.1-6.4-17.7c-5.9-2.6-16.2-1.5-22.6-2.1C602.6,216.3,594.3,217.5,583.5,217.3z"/>
				<path class="st0" d="M433,593.8c-0.8-50.1-0.5-110.3,1-160.4"/>
				<path class="st0" d="M421.2,451.3c5.7-4.8,10-11,12.8-17.9c5.1-12.5,5.5-27.4,1.2-40.4c-2.1-6.4-5.3-12.6-10.4-17.1
					c-5-4.5-12.1-6.9-18.6-5.2c-2,0.5-3.9,1.4-5.2,2.9c-0.6,0.7-1.1,1.5-1.5,2.3c-1.1,2.5-1.2,5.5-1.2,8.4c0,8.4,0,16.7,0.1,25.1
					c-0.8,0.1-1.4,0-1.7-0.2c-1-0.6-0.6-2.3-0.7-4.6c-0.2-8.8,0.5-22.8,3.5-28.6"/>
				<path class="st0" d="M516.5,326.4c4-0.2,12.1,2.3,11.8,6.3c-0.3,4-3.2,7.4-6.6,9.4c-0.8,0.5-1.8,1.1-2,2
					c-0.1,0.8,0.4,1.6,0.9,2.3c2.2,2.8,4.5,5.7,6.7,8.5c0.5,0.7,1.1,1.4,1.9,1.6c0.7,0.2,1.4,0,2-0.2c3.7-1.2,7.2-4.3,10.9-3.2
					c1.6,0.5,2.8,1.7,4.3,2.3c3.2,1.3,7.1-0.3,9.3-2.9c2.3-2.6,3.4-6.1,4.3-9.4c1.3-4.5,2.7-9.3,2.2-14c-0.4-4.7-3-9.5-7.4-11.3
					c-3.8-1.5-8-0.5-11.7,1.1c-0.6,0.2-1.1,0.5-1.7,0.8c-0.8,0.4-1.6,0.8-2.4,1.1c-1.1,0.5-2.2,0.8-3.3,0.8c-1.8,0-3.6-0.8-5.3-1.5
					c-3.1-1.3-6.5-2.3-9.7-1.4C517.7,319.6,515.2,323.3,516.5,326.4"/>
				<path class="st0" d="M538.9,319.9c-7.2-1.7-12.6-9.2-12-16.6c7.5,0.8,14.2,6.9,15.7,14.3"/>
				<path class="st0" d="M435.2,393c-1.2-11-0.7-30.9,0.5-42.9c2.8-28.1,5.7-56.4,4.1-84.6c-0.9-15.2-2.6-31.8,6.3-44.1
					c1.2-1.6,2.6-3.1,4.1-4.5c3.5-3.2,7.7-5.6,12.2-7.4c2.9-1.1,5.8-1.9,8.8-2.5c9.7-1.9,19.6-1.3,29.5-0.8
					c39.7,1.8,79.6,1.8,119.3-0.2c0.5,0,1.1-0.1,1.6-0.1c5.6-0.3,11.2-0.4,16.4,1.5c8.5,3.1,14.4,11.1,17.2,19.6
					c1.4,4,2.1,8.2,2.6,12.4c0.5,4.8,0.7,9.6,0.8,14.4c0.8,29.5-0.1,57.4-0.3,86c-0.1,11.4,0,22.9,0.3,34.7"/>
				<path class="st0" d="M659,339.8c6.6-7.1,5-17.6,7.3-27c1.7-7.1,10.9-18.7,11.2-25.9c0.5-9.7-2.1-7.6-1.7-17.3
					c0.1-1.6-3.6-13.9-5-14.8c-5.3-3.4-6.8-12-12.1-15.4"/>
				<path class="st0" d="M462.3,209.6C462.3,209.5,462.4,209.5,462.3,209.6c7.2-10.1,8.5-14.2,20.1-14.4
					c18.3-0.3,101.7-0.6,116.8-9.8"/>
				<path class="st0" d="M450.2,216.9L450.2,216.9c-0.2-23.5,23.1-44.7,38.8-62.1"/>
				<path class="st0" d="M584.1,122c80.7-2.1,131.1,149.3,127.5,165.8c-2.6,11.8,1,50.7-1.1,62.5c-1.7,9.3-0.4,18.8,0.2,28.1
					c1.7,25.7-1.1,51.7-8.3,76.4"/>
				<path class="st0" d="M659.3,510.7c1.8-33.6-4.8-66.9-7.3-100.4c-0.6-7.8-0.9-15.7,1-23.3c1.1-4.4,3.1-8.8,5.9-12.3
					c2-2.5,4.4-4.6,7.3-6.2c5.8-3.1,14-5,16,1.2c1.8,5.7-2.4,13.9-4.6,19.5c-3,7.9,0.5,17.7,7.7,22c0.5-0.8,0.9-1.7,1.3-2.6
					c0.8-1.8,1.5-3.7,2-5.7c3-11.3,0.7-24-6.5-33.3"/>
				<path class="st0" d="M688.8,403c7.3,28.6,11.6,58.1,21.9,85.8c3.6,9.7,7.8,16.6,12.6,26.1c6.6,13.1,13,29.9,22.7,40
					c10.1,10.6,14.8,26.6,12.1,41c-0.8,4-2.2,8-2,12.1c0.4,6.6,4.9,12.1,7,18.4c2,6.2,1.5,12.9,1.1,19.4
					c-0.7,12.7,0.4,25.4,1.7,38.2c1.4,14.3,2.9,28.6,2,43c-0.1,1.4-8.3,41.3-20.8,57c-10.8,13.6-27.1,22-44,26.2
					c-16.9,4.1-34.4,4.2-51.8,3.7c-3.1-0.1-6.4-0.3-9-2c-2.9-1.9-4.4-5.5-5.7-8.7c-1.3-3.5-2.7-7-4-10.5
					c-4.7-12.5-9.4-25.4-14.1-37.6"/>
				<path class="st0" d="M626.5,758.1c-2.6-0.7-5.2-1.9-7.7-3.5c-6.5-4.1-12-11.1-14.1-19.3"/>
				<path class="st0" d="M579.1,715c-33.6-25.4-68.8-48.9-94.3-82.1c-2.6-3.4-4.9-6.8-6.4-10.3h0c-1.9-4.4-2.5-8.9-0.7-13.6"/>
				<path class="st0" d="M618.1,747.3c-4.4-4.1-8.8-8.1-13.4-12c-8.3-7-16.9-13.7-25.6-20.3"/>
				<path class="st0" d="M477.7,609c-1.2,4.1,2.5,6.6,5.2,9.8c2.8,3.2,6.6,5.4,10.6,6.9c0.9,0.4,1.9,0.7,3,0.7
					c4.4-0.1,6.9-3.8,9.4-7.2"/>
				<path class="st0" d="M669.6,711.1c-6.2-7-15.3-16.2-22.3-22.4"/>
				<path class="st0" d="M677.6,699.8c-10.2-3.4-20.2-7.1-30.2-11.1c-28.8-11.6-56.4-25.9-82.6-42.5c-7.6-4.9-16.3-8.4-24.4-12.4
					c-9.2-4.7-17.9-9.5-27.6-13c-2.2-0.8-4.4-1.6-6.6-2.4c-9.4-3.4-18.7-7-28-10.6c-1.7-0.6-3.3-1.3-5-1.9
					c-7.6-2.9-15.7-6.3-20.1-13.1c-3.2-5-4-11.2-3-17.1c1.2-7.5,5.4-14.6,11.8-18.6c12.6-7.7,28.7-1.6,42.1,4.3
					c49.5,21.7,100.7,39.5,152.9,53.2c6.6,1.7,13.3,3.4,19.9,5"/>
				<path class="st0" d="M732.6,578.1c-13.4-7.4-21.1-21.8-30.3-34c-6-8-15.8-16.4-23.2-23.1c-5.9-5.4-12.7-7.2-20.1-8.9
					c-2.6-0.6-5.4-1.2-8.1-2c-36.7-10.3-75.6-5.6-113.7-6.8c-8.3-0.2-16.7-0.8-24.6,1.5c-8,2.2-15.5,7.8-17.7,15.8
					c-2.9,11,5.6,22.4,15.9,27c10.4,4.7,22.1,4.5,33.5,5.1c20.9,1.2,41.6,5.3,62.2,9.5c8.6,1.7,17.2,3.5,25.9,5.2
					c1.9,0.4,3.9,0.8,5.6,1.9c1.8,1.3,3,3.3,4.2,5.2c6.2,9.9,14.6,18.5,24.4,24.8c4.4,2.9,9.2,5.4,14.1,7.3"/>
				<path class="st0" d="M666.2,600.3c-0.7,6-4.1,11.3-9.3,14.4"/>
				<path class="st0" d="M504,533c-1.9-3.4-3-9.9-1.9-13.6c1.6-5.5,2.7-8.2,8.3-8.8c5.6-0.6,23.3-2.3,28.6-0.1
					c3.1,1.3,1.6,5.4,1.3,6.7c-1.4,7.3-1.5,11.5-4.5,15.8C531.2,539.2,505.8,536.4,504,533z"/>
				<path class="st0" d="M490.7,569.6c1.8,3.9,0.3,9.9-1.7,13.8c-3.3,6.3-6.1,10-13.2,9.2c-4-0.4-8.3-2-11.7-4.3
					c-1.2-0.8-4.9-1.4-7-3.4c-3.1-2.9-7.2-9.1-4.9-12.6c1.7-2.6,2.9-7.6,5.3-9.6c2.4-2,7.9-7,10.9-6.5
					C474.7,557.1,485.5,562.9,490.7,569.6z"/>
				<path class="st0" d="M415.3,586.9c5.9,2.3,11.7,4.8,17.4,7.5c16.2,7.7,31.5,17.2,45.6,28.3"/>
				<path class="st0" d="M583.4,752.2c5.5-9.2,6.1-21.6-4.3-37.2c0,0,0,0,0,0"/>
				<path class="st0" d="M369.1,640.1c23.6,17.3,47.2,34.6,72.9,48.5c21.9,11.8,45.4,21,65.5,35.6c18.1,13.1,33.3,30.5,53.5,40.1
					c1.5,0.7,3,1.4,4.7,1.3c1.2-0.1,2.3-0.5,3.3-1.1c0.4-0.2,0.8-0.5,1.2-0.7c3-1.8,6-3.6,8.6-5.9"/>
				<path class="st0" d="M583.4,752.2c6.8-16.2,2.4-16.9-10.2-27.9c-1.4-1.2-3.2-2.2-5-2c-1.2,0.1-2.2,0.7-3.2,1.4
					c-3.6,2.3-6.7,5.2-9.5,8.4c-2,2.4-3.7,5.1-3.9,8.2c-0.3,4.9,3.3,9.2,7.2,12.1c3.3,2.5,12,11.6,20,5.4c1.5-1.2,3-2.9,4.4-5.4
					C583.3,752.4,583.3,752.3,583.4,752.2"/>
				<path class="st0" d="M711.5,488.7c34.7,3.7,66.1,16.6,98.4,29.8c5.2,2.2,10.5,4.3,15,7.8c5.1,3.9,8.9,9.2,12.6,14.5
					c24.2,34.1,48.4,68.2,72.6,102.3c10.2,14.4,20.5,28.9,29.4,44.2c18.9,32.7,31.2,68.9,43.3,104.7"/>
				<path class="st0" d="M280.3,617.6c-20-48.1-31.8-99.3-39.5-150.9c-4.2-27.9-7.3-56.5-2.2-84.3c10.9-59.6,56.7-105.6,100.2-147.6
					c28-26.9,55.9-53.9,83.9-80.9c11.4-11,22.9-22.1,36.8-29.6c13.9-7.5,109.7-7.1,124.7-2.3"/>
				<path class="st0" d="M414.5,207c-13.7,6.1-23,19.5-27.8,33.8s-5.9,29.4-7.7,44.3c-9.1,76.8-37,151.7-34.2,229"/>
				<path class="st0" d="M265.6,577.2c-29.4,18.3-65.8,40.5-87.9,67.3c-26.9,32.6-40,75.1-42.5,117.4"/>
				<path class="st0" d="M631.4,793.1c-8.2,8.9-3.2,21,1.4,32.3c7.9,19.6,15.8,39.2,23.7,58.8c3.6,8.9,7.2,17.8,11.9,26.2
					c16,28.4,36.8,42.7,68.8,48.4c20.5,7,44.4,0.2,60.1-14.8c15.7-15,23.4-37.3,23.3-59c0-5.1-0.5-10.3-2.1-15.2
					c-2.6-7.9-8.1-14.5-12.9-21.4c-8.1-11.8-14.1-25-17.7-38.9c-5.6-21.6-5.4-44.3-4.1-66.6c0.7-12.2,1.7-24.6-1.5-36.3
					c-3.2-11.7-4.1-19.8-15.9-22.4"/>
				<path class="st0" d="M345.2,699.1c16.1,14.6,35,25.6,53.8,36.5c11.2,6.5,22.5,13.1,34.7,17.6c12.1,4.4,24.8,6.8,37,10.9
					c11.3,3.8,21.9,9.2,32.8,14.2c7.4,3.4,14.8,6.6,22.3,9.7c9.9,4,19.8,7.8,29.9,11.2c5.2,1.8,11.2,3.5,16.1,0.9
					c4.8-2.4,7-8.2,7.3-13.5c0.3-8.4-3.5-16.8-10.1-22c-0.3-0.2-0.6-0.5-0.9-0.7"/>
				<path class="st0" d="M551.3,760.5c-1.4,4.7-3.9,9-7.3,12.6c-1.5,1.6-3.4,3.3-3.5,5.6c-0.1,1.6,0.7,3.1,1.6,4.4
					c2.6,3.9,6,7.3,10.3,9c4.3,1.7,9.5,1.5,13.2-1.3c5.8-4.4,6-12.8,5.7-20.1C571.4,768.6,553.3,761,551.3,760.5z"/>
				<path class="st0" d="M799.7,838.3c23.7-6.2,48,5.8,69.6,17.4c7.6,4.1,15.3,8.2,21.7,13.9c13.2,11.7,20.5,29.4,34.8,39.7"/>
				<path class="st0" d="M870.8,855.4c25.8-2.6,45.8,1.5,70.3,10.1"/>
				<path class="st0" d="M362.5,789c15.3,5.7,22.7,7.2,34.8,5.8c3.1-0.4,6.6-0.9,10.6-1.6"/>
				<path class="st0" d="M372.8,781.5c12.9,4.2,24.4,7.8,35.2,11c35.6,10.4,62.9,15.4,106.8,18.5c6.2,0.4,23.1-10.6,18.5-16.8
					c-0.7-1-3.8-2.5-8.3-4.3c-14.5-6-43-14.9-46.7-15.9c-17.6-4.8-23-3.9-44.6-20.7"/>
				<path class="st0" d="M395.9,410c-4.8,13.1,0.3,27.5,2,41.3c2.9,23.2-3.8,46.3-6,69.6c-0.8,8.7-1.1,17.6-3,26.1
					c-3.1,13.9-10.8,26.8-21.5,36.2l-2,2.2c-15.8,3.6-33.9,9.1-40.2,24.2c-4.8,11.6-0.8,25.3-4.9,37.1c-2.5,7.2-7.9,13-11.6,19.6
					c-3.8,6.7-5.9,14.1-8,21.5c-3.8,13.2-7.6,26.4-10.5,39.8c-2,9.2-3.6,18.7-2.4,28c1.2,9.3,5.5,18.7,13.2,24
					c37.1,31.6,47.7,33.9,89.9,17.8c2-0.8,4.2-1.6,6.4-2.5"/>
				<path class="st0" d="M312.7,654.9c-43.6,28.5-50.7,84.3-57.5,135.9c-3.4,26.1-10.2,30.5-16.6,52.3c-1.2,4.3-9.8,22.5-9.3,26.9
					c1.1,11,20,21.8,29.8,26.6c13.6,6.7,32.4,12.8,46.4,13.8c14,1,31.7-10.6,42.1-20c11.6-10.5,17.6-31,23.8-50.8
					c5.2-16.6,10.5-32.8,19.5-42.4c0,0,0,0,0,0"/>
				<path class="st0" d="M371.4,839.7L371.4,839.7c25.9,22.8,47,58.8,51.3,93.1"/>
				<path class="st0" d="M248.5,815.5c-11.9,3.6-18.8,12.1-27,18.1c-17.9,13.1-37.3,28.9-39.5,51"/>
				<path class="st0" d="M677.5,286.8c6.5-18.6,7.2-56.9-0.6-75.1c-7.8-18.1-20.9-33.6-36-46.3c-15.7-13.2-33.6-21.4-52.7-26.3
					c-19.5-5-40.3-6.6-61.3-6.6c-12.4,0-29.4,12.1-37.9,22.2"/>
				<path class="st0" d="M588,139.9c8.1,11.2,12.1,25.2,11.1,39c-0.1,2.2-0.4,4.4,0.1,6.5c1.1,4.2,5,6.9,8.6,9.3
					c4.6,3,9.2,5.9,13.7,8.8"/>
				<path class="st0" d="M685.1,384c-0.2-0.6-0.4-1.2-0.6-1.8c-1.1,4.4-2.2,8.8-3.2,13.2c-0.3,1.4-0.6,2.8-0.9,4.3
					c0,0.1,0,0.1,0,0.2c-0.2,0.9-0.2,2,0.5,2.6c0.2,0.1,0.5,0.2,0.7,0.2c1.1,0.1,2.1-1,2.1-2.2c0.1-1.1-0.5-2.2-1.1-3.1
					c-0.4-0.7-0.9-1.3-1.3-2c-0.2-0.3-0.3-0.6-0.5-0.9c-1.2-2.9,0.4-6.1,2-8.8c-1.7,0.8-2.4,2.8-3,4.6c-0.6,1.8-1.2,3.6-1.1,5.5
					c0.1,1.5,0.6,3.1,1.6,4.1c0.2,0.2,0.5,0.5,0.8,0.6"/>
				<path class="st0" d="M685.1,384c-0.2,6.8-0.1,13.5,0.4,20.3C687.2,397.6,687,390.6,685.1,384z"/>
				<path class="st0" d="M686.7,408.7C686.6,408.7,686.6,408.7,686.7,408.7c-3.6-1.5-6.5-4.3-8-7.8c-1.5-3.5-1.7-7.6-0.4-11.2
					c0.6-1.6,1.5-3.2,2.3-4.7c1.6-2.8,3.2-5.7,4.9-8.5c-0.1,2.5-0.2,4.9-0.3,7.4"/>
			</g>
		</g>
	</g>
</g>
</svg>
