<svg id="Warstwa_1" data-name="Warstwa 1" xmlns="http://www.w3.org/2000/svg" viewBox="0 0 442.21 300.47"><defs><style>.cls-1{fill:#f2efea;}.cls-2{fill:#ecdbca;stroke:#e9dbca;stroke-width:0.93px;}.cls-10,.cls-11,.cls-2,.cls-3,.cls-4,.cls-6,.cls-7,.cls-8,.cls-9{stroke-miterlimit:10;}.cls-10,.cls-3,.cls-4,.cls-6,.cls-7,.cls-8{fill:none;}.cls-10,.cls-3,.cls-6,.cls-7,.cls-8{stroke:#ea2d41;}.cls-3,.cls-4,.cls-9{stroke-width:0.94px;}.cls-11,.cls-4,.cls-9{stroke:#b78e50;}.cls-11,.cls-5,.cls-9{fill:#b78e50;}.cls-7{stroke-width:1.08px;}.cls-8{stroke-width:1.08px;}.cls-10{stroke-width:0.8px;}.cls-11{font-size:9px;stroke-width:0.5px;font-family:Belle Allure GS;}</style></defs><title>kartka druk</title><rect class="cls-1" width="442.21" height="300.47"/><path class="cls-2" d="M237.88,53.67c-11.74-5.4-17.67-8.12-20.37-8.88-17.69-5-32.86-1.8-38.66-.52A83.65,83.65,0,0,0,149.6,56.81c-5.81,4-18.39,13-25.07,29.25-1.62,3.92-2.64,9.58-4.7,20.9-3.06,16.85-4.59,25.27-4.18,34A90.12,90.12,0,0,0,124,173.82c6.74,14.51,15.5,23.37,20.9,28.73,7.22,7.17,18.9,18.77,38.13,25.07,20.22,6.63,37.39,3.67,46,2.09,10.49-1.93,31.8-6.17,50.15-24.55,20.2-20.24,23.63-44.42,24.55-51.72a93.38,93.38,0,0,0-11-56.42c-3.63-6.59-10.48-18.74-24-28.21C264.74,66.06,255.73,61.89,237.88,53.67Z" transform="translate(8.5 8.5)"/><path class="cls-3" d="M200.36,46.21c-45.33,4.87-79.77,43.31-79.77,89.93A90.4,90.4,0,1,0,221,46.29" transform="translate(8.5 8.5)"/><circle class="cls-4" cx="344.14" cy="80.93" r="22.72" transform="translate(145.51 375.92) rotate(-67.37)"/><path class="cls-4" d="M328.41,64.53c-3.78-2.14-22.57-9.06-24.77-5.27S318.05,78,341,90.61c23.34,12.76,44.65,18.49,46.89,14.62,3-5.12-15.56-17-21.44-20.22" transform="translate(8.5 8.5)"/><path class="cls-5" d="M333.07,71.3a10.38,10.38,0,0,1-4.35-3.4c-0.49-.63-1.37.26-0.88,0.88a11.52,11.52,0,0,0,4.9,3.72c0.75,0.3,1.07-.91.33-1.21h0Z" transform="translate(8.5 8.5)"/><path class="cls-5" d="M330.22,66.23a18,18,0,0,0,4.8,3c0.73,0.33,1.36-.75.63-1.08a17,17,0,0,1-4.55-2.85,0.63,0.63,0,0,0-.88.88h0Z" transform="translate(8.5 8.5)"/><path class="cls-5" d="M332.45,64a21.21,21.21,0,0,0,4.27,2.74c0.75,0.29,1.08-.92.33-1.21a20.19,20.19,0,0,1-4-2.62c-0.66-.46-1.29.62-0.63,1.08h0Z" transform="translate(8.5 8.5)"/><path class="cls-5" d="M339.13,68.44a0.63,0.63,0,0,0,0-1.25,0.63,0.63,0,0,0,0,1.25h0Z" transform="translate(8.5 8.5)"/><path class="cls-5" d="M340.38,61.71a5.5,5.5,0,0,1-2-2.37c-0.27-.75-1.48-0.43-1.21.33a6.51,6.51,0,0,0,2.33,2.92c0.63,0.49,1.52-.39.88-0.88h0Z" transform="translate(8.5 8.5)"/><path class="cls-5" d="M344,59.71a2.21,2.21,0,0,1-1.41-1.43c-0.28-.75-1.49-0.42-1.21.33a3.24,3.24,0,0,0,2.28,2.3c0.75,0.29,1.07-.92.33-1.21h0Z" transform="translate(8.5 8.5)"/><path class="cls-5" d="M333.62,75.24A18.11,18.11,0,0,1,327,70.38c-0.53-.61-1.41.28-0.88,0.88a19.42,19.42,0,0,0,7.2,5.18c0.74,0.31,1.06-.9.33-1.21h0Z" transform="translate(8.5 8.5)"/><path class="cls-5" d="M333.8,79.29A17.39,17.39,0,0,1,327,75.07a0.63,0.63,0,0,0-.88.88,18.81,18.81,0,0,0,7.31,4.54c0.76,0.26,1.09-.95.33-1.21h0Z" transform="translate(8.5 8.5)"/><path class="cls-5" d="M332.24,88.08a52.27,52.27,0,0,1-4.8-3.47c-0.62-.5-1.51.38-0.88,0.88a55.1,55.1,0,0,0,5.05,3.66,0.63,0.63,0,0,0,.63-1.08h0Z" transform="translate(8.5 8.5)"/><path class="cls-5" d="M337.06,93.88c-3.28-.81-5.9-2.86-8.47-5-0.62-.5-1.51.38-0.88,0.88,2.73,2.23,5.53,4.41,9,5.27a0.63,0.63,0,0,0,.33-1.21h0Z" transform="translate(8.5 8.5)"/><path class="cls-5" d="M339.27,100.07c-2.77.15-6.39-2.38-8.6-3.93-0.66-.46-1.29.62-0.63,1.08a39.22,39.22,0,0,0,4.88,2.81,8.58,8.58,0,0,0,4.36,1.29c0.8,0,.81-1.29,0-1.25h0Z" transform="translate(8.5 8.5)"/><path class="cls-5" d="M341.06,92l-0.93-.39a0.63,0.63,0,0,0-.77.44,0.64,0.64,0,0,0,.44.77l0.93,0.39a0.63,0.63,0,0,0,.77-0.44,0.64,0.64,0,0,0-.44-0.77h0Z" transform="translate(8.5 8.5)"/><path class="cls-6" d="M387.62,272.09l-350.35.56a26.36,26.36,0,0,0-.24-5.84,26.84,26.84,0,0,0-5.09-12c-5.68-7.43-13.81-9.44-17.46-10.34a36.11,36.11,0,0,0-7.12-1L7.7,41a30.87,30.87,0,0,0,5.09-.34,30.31,30.31,0,0,0,9.15-2.88,29.33,29.33,0,0,0,9.66-8.14,27.79,27.79,0,0,0,4.92-8.48A26.69,26.69,0,0,0,38,12.87l349.71-.17a24.81,24.81,0,0,0,.17,5.26,26.66,26.66,0,0,0,3.9,10.34,28.34,28.34,0,0,0,14.07,11.19,27.81,27.81,0,0,0,11,1.53q0.08,101.37.17,202.74a28.47,28.47,0,0,0-5.26.34,31.2,31.2,0,0,0-12.37,5.09c-3.05,2.08-7.58,5.18-10.17,11.19A23.1,23.1,0,0,0,387.62,272.09Z" transform="translate(8.5 8.5)"/><path class="cls-6" d="M7.86,239.94c19.77-4.85,38.35,13.08,32.77,32.71" transform="translate(8.5 8.5)"/><path class="cls-6" d="M7.11,233.89c24-8.21,48.14,14.77,39.74,38.76" transform="translate(8.5 8.5)"/><path class="cls-6" d="M382,12.7A21.47,21.47,0,0,0,380.74,21a27.06,27.06,0,0,0,27.06,27.06,21.84,21.84,0,0,0,9.11-1.58" transform="translate(8.5 8.5)"/><path class="cls-6" d="M375.95,12.7a30.06,30.06,0,0,0-2.05,11.13A31.14,31.14,0,0,0,405,55a25.06,25.06,0,0,0,11.89-2.35" transform="translate(8.5 8.5)"/><path class="cls-6" d="M7.9,47.68A21.47,21.47,0,0,0,16.19,49,27.06,27.06,0,0,0,43.25,21.91a21.84,21.84,0,0,0-1.58-9.11" transform="translate(8.5 8.5)"/><path class="cls-6" d="M7.9,53.77A30.06,30.06,0,0,0,19,55.83,31.14,31.14,0,0,0,50.17,24.69,25.06,25.06,0,0,0,47.82,12.8" transform="translate(8.5 8.5)"/><path class="cls-6" d="M416.83,237.25a21.47,21.47,0,0,0-8.29-1.29A27.06,27.06,0,0,0,381.48,263a21.84,21.84,0,0,0,1.58,9.11" transform="translate(8.5 8.5)"/><path class="cls-6" d="M416.83,231.16a30.06,30.06,0,0,0-11.13-2.05,31.14,31.14,0,0,0-31.14,31.14,25.06,25.06,0,0,0,2.35,11.89" transform="translate(8.5 8.5)"/><path class="cls-3" d="M334.81,139.76a7,7,0,0,1,1.41,2,3.58,3.58,0,0,1,.09,2.72,3.93,3.93,0,0,1-1.13,1.31,2.86,2.86,0,0,1-2.44.74A6.86,6.86,0,0,1,330.3,145c-1.19-.9-15.52-15-16.15-16a8.62,8.62,0,0,1-1.6-3.85,9.63,9.63,0,0,1,.08-4.21,10.1,10.1,0,0,1,2.36-3.86,8.49,8.49,0,0,1,5.26-2.63,8.12,8.12,0,0,1,3.57.19,8.81,8.81,0,0,1,4.51,3.38c0.94,1.19,1.59,2,1.5,3.19a3.45,3.45,0,0,1-1.69,2.63,3,3,0,0,1-2.44.38c-0.56-.22-0.54-0.52-1.69-1.5a3.66,3.66,0,0,0-1.6-1,2.51,2.51,0,0,0-2,.66,2.44,2.44,0,0,0-.75,1.88c0.1,0.75.72,1.09,1.6,2S334.33,139.2,334.81,139.76Z" transform="translate(8.5 8.5)"/><line class="cls-3" x1="335.8" y1="150.89" x2="343.31" y2="148.27"/><line class="cls-3" x1="331.32" y1="146.46" x2="339.24" y2="143.98"/><line class="cls-3" x1="327.1" y1="142.24" x2="334.97" y2="139.79"/><line class="cls-3" x1="322.66" y1="137.56" x2="331.26" y2="136.06"/><line class="cls-3" x1="320.99" y1="130.17" x2="328.23" y2="132.17"/><line class="cls-3" x1="326.6" y1="123.55" x2="329.93" y2="130.33"/><line class="cls-3" x1="334.96" y1="124.52" x2="332.52" y2="131.27"/><path class="cls-7" d="M270.93,204.28a204.87,204.87,0,0,1,38.58,8.18,178.28,178.28,0,0,1,36.83,15.78,172.32,172.32,0,0,1,29.82,21.63" transform="translate(8.5 8.5)"/><path class="cls-7" d="M296.08,234.13a37.8,37.8,0,0,0-3.09-9.28c-3-6.17-7.13-10.26-10.48-13.58-1.68-1.66-6-5.6-7-6.43" transform="translate(8.5 8.5)"/><path class="cls-7" d="M309.48,187.39a46.87,46.87,0,0,1-8.59,7.22,48.79,48.79,0,0,1-12.2,5.67c-3.9,1.26-12.51,4-15,4.33" transform="translate(8.5 8.5)"/><path class="cls-7" d="M308.11,234.48q-3.92-5.79-8.42-11.86c-3.35-4.5-9.64-12.39-14-16.12" transform="translate(8.5 8.5)"/><path class="cls-7" d="M322.54,191.86a114.73,114.73,0,0,1-12.37,6.87c-5.13,2.45-19.4,6.52-23.71,7.91" transform="translate(8.5 8.5)"/><path class="cls-7" d="M319.28,244.27a50.75,50.75,0,0,0-3.78-13.4c-3.78-8.62-13.61-18.39-17.16-21.58" transform="translate(8.5 8.5)"/><path class="cls-7" d="M331,243.58a68.28,68.28,0,0,0-4.12-10.65c-3.33-6.84-10.34-15.57-13.69-19.3" transform="translate(8.5 8.5)"/><path class="cls-7" d="M340.07,244.44a70.33,70.33,0,0,0-3.78-9.28c-2.78-5.63-9.85-14.36-12.67-17.8" transform="translate(8.5 8.5)"/><path class="cls-7" d="M346.43,245a35.89,35.89,0,0,0-2.23-7.73c-1.95-4.68-8.54-13.35-10.54-15.56" transform="translate(8.5 8.5)"/><path class="cls-7" d="M356.74,248.05a50.29,50.29,0,0,0-2.58-7.39,113.61,113.61,0,0,0-6.08-11.33" transform="translate(8.5 8.5)"/><path class="cls-7" d="M363.79,249.6a11.38,11.38,0,0,0-.52-6,41.88,41.88,0,0,0-3-6.42" transform="translate(8.5 8.5)"/><path class="cls-7" d="M370.89,252.14c-0.06-1.52-.46-6.25-1.54-8.11" transform="translate(8.5 8.5)"/><path class="cls-7" d="M377.64,243a17.17,17.17,0,0,0-4-.17,34.22,34.22,0,0,0-4.31,1.25" transform="translate(8.5 8.5)"/><path class="cls-7" d="M376.2,235.17a33,33,0,0,1-6.7,1.5,71.48,71.48,0,0,1-9.21.49" transform="translate(8.5 8.5)"/><path class="cls-7" d="M337.17,196.11A45.88,45.88,0,0,1,311,207.78c-3,.31-13.31,1-15.25.86" transform="translate(8.5 8.5)"/><path class="cls-7" d="M349.27,202.8A66.29,66.29,0,0,1,336,209.21c-6.45,2.28-16.09,4.85-20.5,5.21" transform="translate(8.5 8.5)"/><path class="cls-7" d="M358.52,212.05c-4.16,1.32-8.73,2.59-13.67,3.7-4.68,1.05-12.18,3-16.31,3.63" transform="translate(8.5 8.5)"/><path class="cls-7" d="M364.5,218.89a62.07,62.07,0,0,1-11.1,3.42,107.45,107.45,0,0,1-14.56,1.89" transform="translate(8.5 8.5)"/><path class="cls-7" d="M371.19,228.71c-3,.49-6.21.93-9.54,1.28-2.24.24-11.45-.8-13.57-0.66" transform="translate(8.5 8.5)"/><path class="cls-8" d="M150.74,204.15a205.09,205.09,0,0,0-38.62,8.19,178.47,178.47,0,0,0-36.87,15.8A172.49,172.49,0,0,0,45.4,249.79" transform="translate(8.5 8.5)"/><path class="cls-8" d="M125.57,234a37.84,37.84,0,0,1,3.1-9.29c3-6.17,7.14-10.27,10.49-13.59,1.68-1.66,6.05-5.6,7-6.44" transform="translate(8.5 8.5)"/><path class="cls-8" d="M112.15,187.24a46.92,46.92,0,0,0,8.6,7.22A48.84,48.84,0,0,0,133,200.14c3.91,1.27,12.52,4,15,4.34" transform="translate(8.5 8.5)"/><path class="cls-8" d="M113.53,234.37q3.93-5.8,8.43-11.87c3.35-4.5,9.65-12.4,14-16.14" transform="translate(8.5 8.5)"/><path class="cls-8" d="M99.08,191.71a114.85,114.85,0,0,0,12.39,6.88c5.14,2.45,19.42,6.53,23.73,7.92" transform="translate(8.5 8.5)"/><path class="cls-8" d="M102.34,244.18a50.81,50.81,0,0,1,3.78-13.42c3.78-8.63,13.62-18.4,17.18-21.61" transform="translate(8.5 8.5)"/><path class="cls-8" d="M90.65,243.49a68.35,68.35,0,0,1,4.13-10.66c3.34-6.85,10.35-15.58,13.71-19.32" transform="translate(8.5 8.5)"/><path class="cls-8" d="M81.53,244.35a70.4,70.4,0,0,1,3.78-9.29c2.78-5.64,9.86-14.38,12.69-17.82" transform="translate(8.5 8.5)"/><path class="cls-8" d="M75.17,244.87a35.93,35.93,0,0,1,2.24-7.74c1.95-4.69,8.55-13.36,10.55-15.58" transform="translate(8.5 8.5)"/><path class="cls-8" d="M64.85,248a50.34,50.34,0,0,1,2.58-7.4,113.72,113.72,0,0,1,6.09-11.34" transform="translate(8.5 8.5)"/><path class="cls-8" d="M57.79,249.51a11.39,11.39,0,0,1,.52-6,41.92,41.92,0,0,1,3-6.43" transform="translate(8.5 8.5)"/><path class="cls-8" d="M50.68,252.06c0.06-1.52.46-6.26,1.55-8.11" transform="translate(8.5 8.5)"/><path class="cls-8" d="M43.92,242.87a17.19,17.19,0,0,1,4-.17,34.25,34.25,0,0,1,4.32,1.25" transform="translate(8.5 8.5)"/><path class="cls-8" d="M45.36,235.07a33,33,0,0,0,6.7,1.5,71.55,71.55,0,0,0,9.22.49" transform="translate(8.5 8.5)"/><path class="cls-8" d="M84.44,196a45.93,45.93,0,0,0,26.22,11.68c3,0.31,13.32,1,15.26.86" transform="translate(8.5 8.5)"/><path class="cls-8" d="M72.32,202.66a66.36,66.36,0,0,0,13.25,6.41c6.46,2.28,16.1,4.86,20.52,5.22" transform="translate(8.5 8.5)"/><path class="cls-8" d="M63.06,211.93c4.17,1.32,8.74,2.59,13.68,3.7,4.68,1.05,12.19,3,16.32,3.63" transform="translate(8.5 8.5)"/><path class="cls-8" d="M57.08,218.77a62.14,62.14,0,0,0,11.11,3.42,107.56,107.56,0,0,0,14.58,1.89" transform="translate(8.5 8.5)"/><path class="cls-8" d="M50.38,228.6c3,0.49,6.22.93,9.55,1.28,2.25,0.24,11.46-.8,13.59-0.66" transform="translate(8.5 8.5)"/><path class="cls-3" d="M129.9,175.17a121.7,121.7,0,0,0-21.85-8.24A106.3,106.3,0,0,0,84.62,163a103,103,0,0,0-21.82,1.22" transform="translate(8.5 8.5)"/><path class="cls-3" d="M107.75,181.95a22.51,22.51,0,0,1,4.53-3.61,29.11,29.11,0,0,1,9.6-3.38c1.37-.29,4.81-0.85,5.58-0.95" transform="translate(8.5 8.5)"/><path class="cls-3" d="M116.15,154.53a27.37,27.37,0,0,0,1.95,6.31,28.57,28.57,0,0,0,4.24,6.69c1.53,1.87,4.94,6,6.07,6.92" transform="translate(8.5 8.5)"/><path class="cls-3" d="M101.65,178.28q3.82-1.62,8-3.19a72.48,72.48,0,0,1,12.16-3.53" transform="translate(8.5 8.5)"/><path class="cls-3" d="M108.21,152.58a67.1,67.1,0,0,0,3.94,7.34c1.76,2.85,7.55,9.41,9.25,11.47" transform="translate(8.5 8.5)"/><path class="cls-3" d="M92.93,179.58a30.19,30.19,0,0,1,6.21-5.43c4.66-3.06,12.7-4.77,15.51-5.22" transform="translate(8.5 8.5)"/><path class="cls-3" d="M87.34,175.52a40.69,40.69,0,0,1,5.49-4,61.32,61.32,0,0,1,13-5.2" transform="translate(8.5 8.5)"/><path class="cls-3" d="M82.52,173a41.92,41.92,0,0,1,4.88-3.39c3.2-1.9,9.54-4,12.05-4.78" transform="translate(8.5 8.5)"/><path class="cls-3" d="M79.19,171.27a21.35,21.35,0,0,1,3.61-3.12c2.48-1.7,8.56-3.89,10.26-4.35" transform="translate(8.5 8.5)"/><path class="cls-3" d="M73.06,169.52a30,30,0,0,1,3.67-2.84A67.83,67.83,0,0,1,83.41,163" transform="translate(8.5 8.5)"/><path class="cls-3" d="M69.06,168a6.74,6.74,0,0,1,2.2-2.81A25,25,0,0,1,74.8,163" transform="translate(8.5 8.5)"/><path class="cls-3" d="M64.7,167c0.52-.73,2.24-3,3.38-3.52" transform="translate(8.5 8.5)"/><path class="cls-3" d="M64.3,160.34a10.16,10.16,0,0,1,2,1.18,20.09,20.09,0,0,1,1.75,2" transform="translate(8.5 8.5)"/><path class="cls-3" d="M67.53,156.94a19.38,19.38,0,0,0,2.85,2.88A42.19,42.19,0,0,0,74.8,163" transform="translate(8.5 8.5)"/><path class="cls-3" d="M99.56,150a26.88,26.88,0,0,0,9.27,14.12c1.4,1.11,6.31,4.72,7.31,5.28" transform="translate(8.5 8.5)"/><path class="cls-3" d="M91.38,149.49a38.8,38.8,0,0,0,4.52,7.39,64.39,64.39,0,0,0,8.52,9.11" transform="translate(8.5 8.5)"/><path class="cls-3" d="M83.79,151.12c1.65,2,3.51,4.06,5.61,6.19s5.08,5.39,6.95,7" transform="translate(8.5 8.5)"/><path class="cls-3" d="M78.61,152.6A36.43,36.43,0,0,0,83,157.83a63.31,63.31,0,0,0,6.64,5.57" transform="translate(8.5 8.5)"/><path class="cls-3" d="M72.11,155.34c1.35,1.21,2.79,2.44,4.33,3.67,1,0.83,6,3.25,7,4" transform="translate(8.5 8.5)"/><path class="cls-3" d="M291.16,177.13A121.7,121.7,0,0,1,313,168.89,106.3,106.3,0,0,1,336.44,165a103,103,0,0,1,21.82,1.22" transform="translate(8.5 8.5)"/><path class="cls-3" d="M313.31,183.9a22.51,22.51,0,0,0-4.53-3.61,29.11,29.11,0,0,0-9.6-3.38c-1.37-.29-4.81-0.85-5.58-0.95" transform="translate(8.5 8.5)"/><path class="cls-3" d="M304.91,156.49A27.37,27.37,0,0,1,303,162.8a28.57,28.57,0,0,1-4.24,6.69c-1.53,1.87-4.94,6-6.07,6.92" transform="translate(8.5 8.5)"/><path class="cls-3" d="M319.41,180.24q-3.82-1.62-8-3.19a72.48,72.48,0,0,0-12.16-3.53" transform="translate(8.5 8.5)"/><path class="cls-3" d="M312.85,154.54a67.1,67.1,0,0,1-3.94,7.34c-1.76,2.85-7.55,9.41-9.25,11.47" transform="translate(8.5 8.5)"/><path class="cls-3" d="M328.13,181.53a30.19,30.19,0,0,0-6.21-5.43c-4.66-3.06-12.7-4.77-15.51-5.22" transform="translate(8.5 8.5)"/><path class="cls-3" d="M333.73,177.47a40.69,40.69,0,0,0-5.49-4,61.32,61.32,0,0,0-13-5.2" transform="translate(8.5 8.5)"/><path class="cls-3" d="M338.54,175a41.92,41.92,0,0,0-4.88-3.39c-3.2-1.9-9.54-4-12.05-4.78" transform="translate(8.5 8.5)"/><path class="cls-3" d="M341.87,173.23a21.35,21.35,0,0,0-3.61-3.12c-2.48-1.7-8.56-3.89-10.26-4.35" transform="translate(8.5 8.5)"/><path class="cls-3" d="M348,171.48a30,30,0,0,0-3.67-2.84,67.83,67.83,0,0,0-6.68-3.67" transform="translate(8.5 8.5)"/><path class="cls-3" d="M352,170a6.74,6.74,0,0,0-2.2-2.81,25,25,0,0,0-3.55-2.23" transform="translate(8.5 8.5)"/><path class="cls-3" d="M356.36,169c-0.52-.73-2.24-3-3.38-3.52" transform="translate(8.5 8.5)"/><path class="cls-3" d="M356.77,162.3a10.16,10.16,0,0,0-2,1.18,20.09,20.09,0,0,0-1.75,2" transform="translate(8.5 8.5)"/><path class="cls-3" d="M353.53,158.9a19.38,19.38,0,0,1-2.85,2.88,42.19,42.19,0,0,1-4.42,3.18" transform="translate(8.5 8.5)"/><path class="cls-3" d="M321.5,152a26.88,26.88,0,0,1-9.27,14.12c-1.4,1.11-6.31,4.72-7.31,5.28" transform="translate(8.5 8.5)"/><path class="cls-3" d="M329.68,151.45a38.8,38.8,0,0,1-4.52,7.39,64.39,64.39,0,0,1-8.52,9.11" transform="translate(8.5 8.5)"/><path class="cls-3" d="M337.27,153.08c-1.65,2-3.51,4.06-5.61,6.19s-5.08,5.39-6.95,7" transform="translate(8.5 8.5)"/><path class="cls-3" d="M342.45,154.56a36.43,36.43,0,0,1-4.43,5.23,63.31,63.31,0,0,1-6.64,5.57" transform="translate(8.5 8.5)"/><path class="cls-3" d="M349,157.29c-1.35,1.21-2.79,2.44-4.33,3.67-1,.83-6,3.25-7,4" transform="translate(8.5 8.5)"/><path class="cls-3" d="M357.9,199.86a7,7,0,0,0-1.41,2,3.58,3.58,0,0,0-.09,2.72,3.93,3.93,0,0,0,1.13,1.31,2.86,2.86,0,0,0,2.44.74,6.86,6.86,0,0,0,2.44-1.49c1.19-.9,15.52-15,16.15-16a8.62,8.62,0,0,0,1.6-3.85,9.63,9.63,0,0,0-.08-4.21,10.1,10.1,0,0,0-2.36-3.86,8.49,8.49,0,0,0-5.26-2.63,8.12,8.12,0,0,0-3.57.19,8.81,8.81,0,0,0-4.51,3.38c-0.94,1.19-1.59,2-1.5,3.19a3.45,3.45,0,0,0,1.69,2.63,3,3,0,0,0,2.44.38c0.56-.22.54-0.52,1.69-1.5a3.66,3.66,0,0,1,1.6-1,2.51,2.51,0,0,1,2,.66,2.44,2.44,0,0,1,.75,1.88c-0.1.75-.72,1.09-1.6,2S358.38,199.3,357.9,199.86Z" transform="translate(8.5 8.5)"/><line class="cls-3" x1="373.91" y1="211" x2="366.4" y2="208.37"/><line class="cls-3" x1="378.39" y1="206.56" x2="370.48" y2="204.08"/><line class="cls-3" x1="382.62" y1="202.34" x2="374.74" y2="199.9"/><line class="cls-3" x1="387.06" y1="197.66" x2="378.46" y2="196.16"/><line class="cls-3" x1="388.73" y1="190.27" x2="381.49" y2="192.27"/><line class="cls-3" x1="383.12" y1="183.65" x2="379.79" y2="190.43"/><line class="cls-3" x1="374.76" y1="184.62" x2="377.2" y2="191.37"/><path class="cls-3" d="M56.72,199.79a7,7,0,0,1,2-1.34,3.58,3.58,0,0,1,2.72,0,3.93,3.93,0,0,1,1.27,1.17,2.86,2.86,0,0,1,.66,2.46,6.86,6.86,0,0,1-1.58,2.39c-0.94,1.15-15.58,15-16.51,15.58a8.62,8.62,0,0,1-3.9,1.46,9.63,9.63,0,0,1-4.21-.23,10.1,10.1,0,0,1-3.78-2.49A8.49,8.49,0,0,1,31,213.46a8.12,8.12,0,0,1,.31-3.56,8.81,8.81,0,0,1,3.53-4.39c1.23-.9,2.07-1.52,3.24-1.39a3.45,3.45,0,0,1,2.57,1.78,3,3,0,0,1,.29,2.45c-0.24.55-.54,0.52-1.56,1.64a3.66,3.66,0,0,0-1.09,1.56,2.51,2.51,0,0,0,.59,2,2.44,2.44,0,0,0,1.85.82c0.76-.07,1.12-0.68,2-1.53S56.14,200.26,56.72,199.79Z" transform="translate(8.5 8.5)"/><line class="cls-3" x1="67.59" y1="215.9" x2="65.22" y2="208.3"/><line class="cls-3" x1="63.01" y1="220.22" x2="60.8" y2="212.22"/><line class="cls-3" x1="58.64" y1="224.29" x2="56.47" y2="216.34"/><line class="cls-3" x1="53.81" y1="228.57" x2="52.61" y2="219.92"/><line class="cls-3" x1="46.36" y1="229.98" x2="48.61" y2="222.81"/><line class="cls-3" x1="39.94" y1="224.15" x2="46.83" y2="221.05"/><line class="cls-3" x1="41.2" y1="215.82" x2="47.87" y2="218.5"/><path class="cls-3" d="M200.36,46.21V37.64A2.33,2.33,0,0,1,201.81,36a1.72,1.72,0,0,1,.8,0h16.45a2.68,2.68,0,0,1,1,.24A3,3,0,0,1,221.62,38v8.16a1.73,1.73,0,0,0-1.29.47,4,4,0,0,1-.55,1.19,1.54,1.54,0,0,1-1.28.33,1.12,1.12,0,0,1-.81-0.42,12.52,12.52,0,0,0-.9-1.66,1.16,1.16,0,0,0-1.29.09c-0.32.3-.49,1-0.88,1.38a1.69,1.69,0,0,1-1.19.57c-0.42,0-.93,0-1.56-1.19a1.14,1.14,0,0,0-1.28-.81,1.51,1.51,0,0,0-1.14.9c-0.61.89-.86,0.89-1.31,0.85a1.15,1.15,0,0,1-1.1-.66c-0.43-.79-0.64-1.2-1.44-1.26a1.24,1.24,0,0,0-1.07.55,13.67,13.67,0,0,1-.81,1.14,1,1,0,0,1-1.37.09,4.63,4.63,0,0,0-.85-1.37A1.45,1.45,0,0,0,200.36,46.21Z" transform="translate(8.5 8.5)"/><circle class="cls-3" cx="219.88" cy="39.53" r="2.42"/><circle class="cls-3" cx="219.88" cy="39.53" r="4.85"/><path class="cls-3" d="M56.24,101.3l17.11,29.22" transform="translate(8.5 8.5)"/><path class="cls-3" d="M73.74,101.3l-17.28,29.4" transform="translate(8.5 8.5)"/><path class="cls-3" d="M47.18,116.12l35.33-.26" transform="translate(8.5 8.5)"/><polygon class="cls-3" points="73.46 117.14 75.26 121.23 79.71 120.74 77.07 124.35 79.71 127.96 75.26 127.47 73.46 131.56 71.66 127.47 67.21 127.96 69.85 124.35 67.21 120.74 71.66 121.23 73.46 117.14"/><line class="cls-3" x1="80.02" y1="135.88" x2="78.85" y2="138.44"/><line class="cls-3" x1="88.04" y1="124.41" x2="89.21" y2="126.97"/><line class="cls-3" x1="58.23" y1="122.29" x2="59.39" y2="124.86"/><line class="cls-3" x1="80.02" y1="113.3" x2="78.85" y2="110.74"/><line class="cls-3" x1="89.21" y1="121.95" x2="88.04" y2="124.51"/><line class="cls-3" x1="59.39" y1="124.5" x2="58.23" y2="127.06"/><line class="cls-3" x1="66.8" y1="113.04" x2="67.97" y2="110.47"/><line class="cls-3" x1="67.84" y1="138.44" x2="66.68" y2="135.88"/><line class="cls-3" x1="82.91" y1="113.18" x2="80.12" y2="113.53"/><line class="cls-3" x1="66.77" y1="112.98" x2="63.96" y2="113.08"/><line class="cls-3" x1="66.74" y1="135.94" x2="63.99" y2="136.56"/><line class="cls-3" x1="82.92" y1="135.87" x2="80.11" y2="135.87"/><line class="cls-3" x1="82.09" y1="134.41" x2="79.27" y2="134.41"/><line class="cls-3" x1="79.05" y1="134.59" x2="77.89" y2="137.15"/><line class="cls-3" x1="69.02" y1="137.15" x2="67.85" y2="134.59"/><line class="cls-3" x1="67.82" y1="134.35" x2="65.08" y2="134.96"/><line class="cls-3" x1="60.88" y1="124.5" x2="59.72" y2="127.06"/><line class="cls-3" x1="59.72" y1="121.95" x2="60.88" y2="124.51"/><line class="cls-3" x1="67.37" y1="114.45" x2="64.56" y2="114.55"/><line class="cls-3" x1="67.65" y1="114.54" x2="68.82" y2="111.98"/><line class="cls-3" x1="79.17" y1="114.99" x2="78" y2="112.43"/><line class="cls-3" x1="82.08" y1="114.59" x2="79.29" y2="114.94"/><line class="cls-3" x1="87.47" y1="121.72" x2="86.3" y2="124.28"/><line class="cls-3" x1="86.3" y1="124.66" x2="87.47" y2="127.23"/><path class="cls-4" d="M145.34,173.31l-2.11-1.07a0.25,0.25,0,0,0-.23,0l-2.08,1.13a0.25,0.25,0,0,1-.36-0.25l0.37-2.34a0.25,0.25,0,0,0-.07-0.22l-1.72-1.63a0.25,0.25,0,0,1,.13-0.42l2.34-.37a0.25,0.25,0,0,0,.18-0.14l1-2.14a0.25,0.25,0,0,1,.44,0l1.08,2.11a0.25,0.25,0,0,0,.19.13l2.35,0.31a0.25,0.25,0,0,1,.14.42l-1.67,1.68a0.25,0.25,0,0,0-.07.22l0.43,2.33A0.25,0.25,0,0,1,145.34,173.31Z" transform="translate(8.5 8.5)"/><path class="cls-4" d="M358.52,39.41l-3.93-.2a0.41,0.41,0,0,0-.35.16l-2.39,3.12a0.41,0.41,0,0,1-.72-0.14l-1-3.8a0.41,0.41,0,0,0-.26-0.28L346.14,37a0.41,0.41,0,0,1-.09-0.73l3.29-2.15a0.41,0.41,0,0,0,.19-0.33l0.1-3.93a0.41,0.41,0,0,1,.67-0.31L353.36,32a0.41,0.41,0,0,0,.37.07l3.77-1.12a0.41,0.41,0,0,1,.5.54l-1.4,3.67a0.41,0.41,0,0,0,0,.38l2.23,3.24A0.41,0.41,0,0,1,358.52,39.41Z" transform="translate(8.5 8.5)"/><path class="cls-4" d="M313.72,88.24l-2.24-1.14a0.26,0.26,0,0,0-.24,0L309,88.3a0.26,0.26,0,0,1-.38-0.27L309,85.55a0.26,0.26,0,0,0-.08-0.23l-1.82-1.73a0.26,0.26,0,0,1,.14-0.45l2.48-.4a0.26,0.26,0,0,0,.2-0.15L311,80.33a0.26,0.26,0,0,1,.47,0l1.14,2.24a0.26,0.26,0,0,0,.2.14L315.34,83a0.26,0.26,0,0,1,.15.44l-1.78,1.78a0.26,0.26,0,0,0-.07.23L314.1,88A0.26,0.26,0,0,1,313.72,88.24Z" transform="translate(8.5 8.5)"/><path class="cls-4" d="M281.41,40l-2.24-1.14a0.26,0.26,0,0,0-.24,0l-2.21,1.2a0.26,0.26,0,0,1-.38-0.27l0.39-2.48a0.26,0.26,0,0,0-.08-0.23l-1.82-1.73a0.26,0.26,0,0,1,.14-0.45l2.48-.4a0.26,0.26,0,0,0,.2-0.15l1.08-2.27a0.26,0.26,0,0,1,.47,0l1.14,2.24a0.26,0.26,0,0,0,.2.14L283,34.82a0.26,0.26,0,0,1,.15.44L281.39,37a0.26,0.26,0,0,0-.07.23l0.46,2.47A0.26,0.26,0,0,1,281.41,40Z" transform="translate(8.5 8.5)"/><path class="cls-4" d="M147,153.52l-2.11-1.07a0.25,0.25,0,0,0-.23,0l-2.08,1.13a0.25,0.25,0,0,1-.36-0.25l0.37-2.34a0.25,0.25,0,0,0-.07-0.22l-1.72-1.63a0.25,0.25,0,0,1,.13-0.42l2.34-.37a0.25,0.25,0,0,0,.18-0.14l1-2.14a0.25,0.25,0,0,1,.44,0l1.08,2.11a0.25,0.25,0,0,0,.19.13l2.35,0.31a0.25,0.25,0,0,1,.14.42L147,150.71a0.25,0.25,0,0,0-.07.22l0.43,2.33A0.25,0.25,0,0,1,147,153.52Z" transform="translate(8.5 8.5)"/><path class="cls-3" d="M155.12,164.12l17.11,29.22" transform="translate(8.5 8.5)"/><path class="cls-3" d="M172.62,164.12l-17.28,29.4" transform="translate(8.5 8.5)"/><path class="cls-3" d="M146.06,179l35.33-.26" transform="translate(8.5 8.5)"/><polygon class="cls-3" points="172.34 179.96 174.14 184.05 178.58 183.57 175.94 187.18 178.58 190.78 174.14 190.3 172.34 194.39 170.53 190.3 166.09 190.78 168.73 187.18 166.09 183.57 170.53 184.05 172.34 179.96"/><line class="cls-3" x1="178.89" y1="198.7" x2="177.73" y2="201.26"/><line class="cls-3" x1="186.92" y1="187.24" x2="188.08" y2="189.8"/><line class="cls-3" x1="157.11" y1="185.12" x2="158.27" y2="187.68"/><line class="cls-3" x1="178.89" y1="176.13" x2="177.73" y2="173.57"/><line class="cls-3" x1="188.08" y1="184.78" x2="186.92" y2="187.34"/><line class="cls-3" x1="158.27" y1="187.33" x2="157.11" y2="189.89"/><line class="cls-3" x1="165.68" y1="175.86" x2="166.84" y2="173.3"/><line class="cls-3" x1="166.72" y1="201.26" x2="165.56" y2="198.7"/><line class="cls-3" x1="181.79" y1="176" x2="179" y2="176.36"/><line class="cls-3" x1="165.65" y1="175.81" x2="162.84" y2="175.91"/><line class="cls-3" x1="165.62" y1="198.77" x2="162.87" y2="199.39"/><line class="cls-3" x1="181.8" y1="198.7" x2="178.98" y2="198.7"/><line class="cls-3" x1="180.96" y1="197.24" x2="178.15" y2="197.24"/><line class="cls-3" x1="177.93" y1="197.42" x2="176.76" y2="199.98"/><line class="cls-3" x1="167.89" y1="199.98" x2="166.73" y2="197.42"/><line class="cls-3" x1="166.7" y1="197.17" x2="163.95" y2="197.79"/><line class="cls-3" x1="159.76" y1="187.33" x2="158.6" y2="189.89"/><line class="cls-3" x1="158.6" y1="184.78" x2="159.76" y2="187.34"/><line class="cls-3" x1="166.25" y1="177.28" x2="163.43" y2="177.38"/><line class="cls-3" x1="166.53" y1="177.37" x2="167.69" y2="174.81"/><line class="cls-3" x1="178.04" y1="177.81" x2="176.88" y2="175.25"/><line class="cls-3" x1="180.95" y1="177.42" x2="178.16" y2="177.77"/><line class="cls-3" x1="186.34" y1="184.55" x2="185.18" y2="187.11"/><line class="cls-3" x1="185.18" y1="187.49" x2="186.34" y2="190.05"/><path class="cls-6" d="M377.08,132.41l18.17,31" transform="translate(8.5 8.5)"/><path class="cls-6" d="M395.66,132.41l-18.34,31.21" transform="translate(8.5 8.5)"/><path class="cls-6" d="M367.46,148.16l37.51-.27" transform="translate(8.5 8.5)"/><polygon class="cls-6" points="394.84 148.71 396.75 153.05 401.47 152.54 398.67 156.37 401.47 160.19 396.75 159.68 394.84 164.03 392.92 159.68 388.2 160.19 391.01 156.37 388.2 152.54 392.92 153.05 394.84 148.71"/><line class="cls-6" x1="401.8" y1="168.6" x2="400.56" y2="171.32"/><line class="cls-6" x1="410.32" y1="156.43" x2="411.56" y2="159.15"/><line class="cls-6" x1="378.67" y1="154.18" x2="379.9" y2="156.9"/><line class="cls-6" x1="401.8" y1="144.64" x2="400.56" y2="141.92"/><line class="cls-6" x1="411.56" y1="153.82" x2="410.32" y2="156.54"/><line class="cls-6" x1="379.9" y1="156.52" x2="378.67" y2="159.24"/><line class="cls-6" x1="387.77" y1="144.35" x2="389.01" y2="141.63"/><line class="cls-6" x1="388.88" y1="171.32" x2="387.64" y2="168.6"/><line class="cls-6" x1="404.87" y1="144.5" x2="401.91" y2="144.88"/><line class="cls-6" x1="387.74" y1="144.3" x2="384.75" y2="144.4"/><line class="cls-6" x1="387.7" y1="168.67" x2="384.79" y2="169.33"/><line class="cls-6" x1="404.88" y1="168.6" x2="401.9" y2="168.6"/><line class="cls-6" x1="404" y1="167.05" x2="401.01" y2="167.05"/><line class="cls-6" x1="400.77" y1="167.24" x2="399.54" y2="169.96"/><line class="cls-6" x1="390.12" y1="169.96" x2="388.88" y2="167.24"/><line class="cls-6" x1="388.85" y1="166.98" x2="385.94" y2="167.63"/><line class="cls-6" x1="381.49" y1="156.52" x2="380.25" y2="159.24"/><line class="cls-6" x1="380.25" y1="153.82" x2="381.49" y2="156.54"/><line class="cls-6" x1="388.37" y1="145.86" x2="385.39" y2="145.96"/><line class="cls-6" x1="388.67" y1="145.95" x2="389.91" y2="143.23"/><line class="cls-6" x1="400.9" y1="146.42" x2="399.66" y2="143.7"/><line class="cls-6" x1="403.99" y1="146" x2="401.02" y2="146.38"/><line class="cls-6" x1="409.71" y1="153.57" x2="408.47" y2="156.29"/><line class="cls-6" x1="408.47" y1="156.7" x2="409.71" y2="159.42"/><path class="cls-6" d="M30.75,61.15l18.17,31" transform="translate(8.5 8.5)"/><path class="cls-6" d="M49.33,61.15L31,92.36" transform="translate(8.5 8.5)"/><path class="cls-6" d="M21.13,76.89l37.51-.27" transform="translate(8.5 8.5)"/><polygon class="cls-6" points="48.5 77.44 50.42 81.78 55.14 81.27 52.33 85.1 55.14 88.93 50.42 88.42 48.5 92.76 46.59 88.42 41.87 88.93 44.67 85.1 41.87 81.27 46.59 81.78 48.5 77.44"/><line class="cls-6" x1="55.47" y1="97.34" x2="54.23" y2="100.06"/><line class="cls-6" x1="63.99" y1="85.16" x2="65.22" y2="87.88"/><line class="cls-6" x1="32.33" y1="82.92" x2="33.57" y2="85.64"/><line class="cls-6" x1="55.47" y1="73.37" x2="54.23" y2="70.65"/><line class="cls-6" x1="65.22" y1="82.55" x2="63.99" y2="85.27"/><line class="cls-6" x1="33.57" y1="85.26" x2="32.33" y2="87.98"/><line class="cls-6" x1="41.44" y1="73.09" x2="42.67" y2="70.37"/><line class="cls-6" x1="42.54" y1="100.06" x2="41.31" y2="97.34"/><line class="cls-6" x1="58.54" y1="73.23" x2="55.57" y2="73.61"/><line class="cls-6" x1="41.41" y1="73.03" x2="38.42" y2="73.14"/><line class="cls-6" x1="41.37" y1="97.41" x2="38.46" y2="98.06"/><line class="cls-6" x1="58.55" y1="97.33" x2="55.56" y2="97.33"/><line class="cls-6" x1="57.66" y1="95.78" x2="54.68" y2="95.78"/><line class="cls-6" x1="54.44" y1="95.97" x2="53.2" y2="98.69"/><line class="cls-6" x1="43.79" y1="98.69" x2="42.55" y2="95.97"/><line class="cls-6" x1="42.52" y1="95.71" x2="39.61" y2="96.37"/><line class="cls-6" x1="35.15" y1="85.26" x2="33.92" y2="87.98"/><line class="cls-6" x1="33.92" y1="82.55" x2="35.15" y2="85.27"/><line class="cls-6" x1="42.04" y1="74.59" x2="39.05" y2="74.69"/><line class="cls-6" x1="42.34" y1="74.69" x2="43.57" y2="71.97"/><line class="cls-6" x1="54.56" y1="75.16" x2="53.33" y2="72.44"/><line class="cls-6" x1="57.65" y1="74.74" x2="54.69" y2="75.11"/><line class="cls-6" x1="63.38" y1="82.31" x2="62.14" y2="85.03"/><line class="cls-6" x1="62.14" y1="85.43" x2="63.38" y2="88.15"/><path class="cls-9" d="M386,69.13c-1-2-1.79-3.76-2.58-5.5-0.14-.31-0.49-0.75-0.06-1s0.7,0.27.9,0.56c0.95,1.35,1.85,2.73,2.78,4.09a0.64,0.64,0,0,0,.53.5,0.69,0.69,0,0,0,.38-0.64c0.21-.56.37-1.14,0.58-1.7,0.11-.3.23-0.71,0.69-0.54s0.26,0.49.2,0.78c-0.13.55-.27,1.09-0.39,1.64a0.8,0.8,0,0,0-.07.84c0.32,0.27.62-.1,0.9-0.23,1.49-.7,3-1.44,4.46-2.14,0.31-.15.73-0.49,1,0s-0.25.63-.54,0.83l-4.15,2.88a1.2,1.2,0,0,0-.65.7c0.85,0.27,1.69.54,2.53,0.83,0.28,0.1.62,0.22,0.52,0.6s-0.46.31-.75,0.24l-1.85-.46a0.58,0.58,0,0,0-.63,0,0.55,0.55,0,0,0,.1.62c0.67,1.46,1.37,2.91,2,4.39,0.17,0.39.73,1,.11,1.26s-0.75-.47-1-0.84c-1.06-1.48-2.08-3-3.18-4.57a15.67,15.67,0,0,0-1,2.73c-0.11.24-.18,0.56-0.5,0.51S386,75.05,386,74.77a14.48,14.48,0,0,0,.44-2.79c-1.66.78-3.26,1.55-4.88,2.26-0.45.2-1,.91-1.43,0.23s0.5-.8.9-1.08c1.43-1,2.89-2,4.56-3.12-1-.33-1.68-0.56-2.39-0.85-0.34-.14-1-0.15-0.79-0.71s0.71-.23,1.09-0.15c0.75,0.16,1.49.35,2.48,0.58M388.79,72c0-.54-0.44-0.95-0.21-1.46,0.41-.91-0.06-1.28-0.9-1.44a5.59,5.59,0,0,1-.8-0.27,3.34,3.34,0,0,1-.09.8c-0.33.87-.14,1.4,0.86,1.47a1.94,1.94,0,0,1,1.14.9" transform="translate(8.5 8.5)"/><path class="cls-9" d="M355.71,115.63c1.52-1.68,2.79-3.1,4.08-4.5,0.23-.25.5-0.74,0.91-0.45s0,0.75-.17,1c-0.88,1.39-1.8,2.76-2.7,4.14a0.64,0.64,0,0,0-.26.69,0.69,0.69,0,0,0,.73.1c0.6,0,1.19-.1,1.79-0.12,0.32,0,.75-0.06.77,0.42s-0.35.43-.64,0.48l-1.66.27a0.8,0.8,0,0,0-.8.26c-0.13.39,0.33,0.54,0.56,0.75,1.22,1.11,2.47,2.19,3.69,3.29,0.26,0.23.73,0.49,0.41,0.9s-0.68,0-1-.18L357.18,120a1.2,1.2,0,0,0-.9-0.33c0.07,0.89.15,1.77,0.21,2.65,0,0.3,0,.66-0.36.71s-0.46-.3-0.51-0.6c-0.1-.63-0.2-1.26-0.29-1.89a0.58,0.58,0,0,0-.26-0.58,0.55,0.55,0,0,0-.53.33c-1.09,1.18-2.16,2.39-3.29,3.54-0.29.3-.6,1-1.12,0.59s0.15-.87.39-1.25c1-1.55,2-3.07,3-4.69a15.67,15.67,0,0,0-2.89.15c-0.26,0-.58,0-0.66-0.26s0.28-.48.55-0.57a14.48,14.48,0,0,0,2.75-.66c-1.36-1.24-2.69-2.41-4-3.64-0.35-.34-1.24-0.62-0.76-1.24s0.93,0.15,1.34.41c1.48,0.93,2.94,1.9,4.63,3-0.06-1-.13-1.77-0.13-2.53,0-.37-0.24-1,0.36-1s0.48,0.57.56,1c0.14,0.75.25,1.51,0.42,2.51m-1.61,3.71c0.49-.24.71-0.77,1.27-0.75,1,0,1.16-.55,1-1.38a5.59,5.59,0,0,1-.06-0.84,3.34,3.34,0,0,1-.77.22c-0.93,0-1.35.41-1,1.36a1.94,1.94,0,0,1-.39,1.4" transform="translate(8.5 8.5)"/><path class="cls-9" d="M286.46,55.52c-1-2-1.79-3.76-2.58-5.5-0.14-.31-0.49-0.75-0.06-1s0.7,0.27.9,0.56c0.95,1.35,1.85,2.73,2.78,4.09a0.64,0.64,0,0,0,.53.5,0.69,0.69,0,0,0,.38-0.64c0.21-.56.37-1.14,0.58-1.7,0.11-.3.23-0.71,0.69-0.54s0.26,0.49.2,0.78c-0.13.55-.27,1.09-0.39,1.64a0.8,0.8,0,0,0-.07.84c0.32,0.27.62-.1,0.9-0.23,1.49-.7,3-1.44,4.46-2.14,0.31-.15.73-0.49,1,0s-0.25.63-.54,0.83l-4.15,2.88a1.2,1.2,0,0,0-.65.7c0.85,0.27,1.69.54,2.53,0.83,0.28,0.1.62,0.22,0.52,0.6s-0.46.31-.75,0.24l-1.85-.46a0.58,0.58,0,0,0-.63,0,0.55,0.55,0,0,0,.1.62c0.67,1.46,1.37,2.91,2,4.39,0.17,0.39.73,1,.11,1.26s-0.75-.47-1-0.84c-1.06-1.48-2.08-3-3.18-4.57a15.67,15.67,0,0,0-1,2.73c-0.11.24-.18,0.56-0.5,0.51s-0.34-.44-0.31-0.72a14.48,14.48,0,0,0,.44-2.79c-1.66.78-3.26,1.55-4.88,2.26-0.45.2-1,.91-1.43,0.23s0.5-.8.9-1.08c1.43-1,2.89-2,4.56-3.12-1-.33-1.68-0.56-2.39-0.85-0.34-.14-1-0.15-0.79-0.71s0.71-.23,1.09-0.15c0.75,0.16,1.49.35,2.48,0.58m2.81,2.91c0-.54-0.44-0.95-0.21-1.46,0.41-.91-0.06-1.28-0.9-1.44a5.59,5.59,0,0,1-.8-0.27,3.34,3.34,0,0,1-.09.8c-0.33.87-.14,1.4,0.86,1.47a1.94,1.94,0,0,1,1.14.9" transform="translate(8.5 8.5)"/><path class="cls-4" d="M56.67,52L54.43,50.9a0.26,0.26,0,0,0-.24,0L52,52.1a0.26,0.26,0,0,1-.38-0.27L52,49.34a0.26,0.26,0,0,0-.08-0.23l-1.82-1.73a0.26,0.26,0,0,1,.14-0.45l2.48-.4a0.26,0.26,0,0,0,.2-0.15L54,44.13a0.26,0.26,0,0,1,.47,0l1.14,2.24a0.26,0.26,0,0,0,.2.14l2.49,0.33a0.26,0.26,0,0,1,.15.44l-1.78,1.78a0.26,0.26,0,0,0-.07.23L57,51.76A0.26,0.26,0,0,1,56.67,52Z" transform="translate(8.5 8.5)"/><path class="cls-9" d="M232.09,34.09c1.52-1.68,2.79-3.1,4.08-4.5,0.23-.25.5-0.74,0.91-0.45s0,0.75-.17,1c-0.88,1.39-1.8,2.76-2.7,4.14a0.64,0.64,0,0,0-.26.69,0.69,0.69,0,0,0,.73.1c0.6,0,1.19-.1,1.79-0.12,0.32,0,.75-0.06.77,0.42s-0.35.43-.64,0.48l-1.66.27a0.8,0.8,0,0,0-.8.26c-0.13.39,0.33,0.54,0.56,0.75,1.22,1.11,2.47,2.19,3.69,3.29,0.26,0.23.73,0.49,0.41,0.9s-0.68,0-1-.18l-4.25-2.73a1.2,1.2,0,0,0-.9-0.33c0.07,0.89.15,1.77,0.21,2.65,0,0.3,0,.66-0.36.71s-0.46-.3-0.51-0.6c-0.1-.63-0.2-1.26-0.29-1.89a0.58,0.58,0,0,0-.26-0.58,0.55,0.55,0,0,0-.53.33c-1.09,1.18-2.16,2.39-3.29,3.54-0.29.3-.6,1-1.12,0.59s0.15-.87.39-1.25c1-1.55,2-3.07,3-4.69a15.67,15.67,0,0,0-2.89.15c-0.26,0-.58,0-0.66-0.26s0.28-.48.55-0.57a14.48,14.48,0,0,0,2.75-.66c-1.36-1.24-2.69-2.41-4-3.64-0.35-.34-1.24-0.62-0.76-1.24s0.93,0.15,1.34.41c1.48,0.93,2.94,1.9,4.63,3-0.06-1-.13-1.77-0.13-2.53,0-.37-0.24-1,0.36-1s0.48,0.57.56,1c0.14,0.75.25,1.51,0.42,2.51m-1.61,3.71c0.49-.24.71-0.77,1.27-0.75,1,0,1.16-.55,1-1.38a5.59,5.59,0,0,1-.06-0.84,3.34,3.34,0,0,1-.77.22c-0.93,0-1.35.41-1,1.36a1.94,1.94,0,0,1-.39,1.4" transform="translate(8.5 8.5)"/><path class="cls-6" d="M120.58,70l9.33,15.93" transform="translate(8.5 8.5)"/><path class="cls-6" d="M130.12,70L120.7,86" transform="translate(8.5 8.5)"/><path class="cls-6" d="M115.64,78.06l19.26-.14" transform="translate(8.5 8.5)"/><polygon class="cls-6" points="133.84 82.47 134.82 84.7 137.25 84.44 135.81 86.41 137.25 88.38 134.82 88.11 133.84 90.34 132.85 88.11 130.43 88.38 131.87 86.41 130.43 84.44 132.85 84.7 133.84 82.47"/><line class="cls-6" x1="138.54" y1="91.9" x2="137.01" y2="91.9"/><line class="cls-6" x1="136.89" y1="91.99" x2="136.25" y2="93.39"/><line class="cls-6" x1="131.42" y1="93.39" x2="130.78" y2="91.99"/><line class="cls-6" x1="130.77" y1="91.86" x2="129.27" y2="92.2"/><line class="cls-6" x1="126.98" y1="86.49" x2="126.35" y2="87.89"/><line class="cls-6" x1="126.35" y1="85.1" x2="126.98" y2="86.5"/><line class="cls-6" x1="130.52" y1="81.01" x2="128.98" y2="81.06"/><line class="cls-6" x1="130.67" y1="81.06" x2="131.31" y2="79.66"/><line class="cls-6" x1="136.95" y1="81.3" x2="136.32" y2="79.91"/><line class="cls-6" x1="138.54" y1="81.09" x2="137.02" y2="81.28"/><line class="cls-6" x1="141.48" y1="84.97" x2="140.84" y2="86.37"/><line class="cls-6" x1="140.84" y1="86.58" x2="141.48" y2="87.98"/><path class="cls-3" d="M44.94,177.83l8.79,15" transform="translate(8.5 8.5)"/><path class="cls-3" d="M53.93,177.83l-8.87,15.1" transform="translate(8.5 8.5)"/><path class="cls-3" d="M40.28,185.44l18.14-.13" transform="translate(8.5 8.5)"/><polygon class="cls-3" points="57.92 190.1 58.84 192.2 61.13 191.95 59.77 193.81 61.13 195.66 58.84 195.41 57.92 197.51 56.99 195.41 54.71 195.66 56.06 193.81 54.71 191.95 56.99 192.2 57.92 190.1"/><line class="cls-3" x1="62.35" y1="198.97" x2="60.9" y2="198.97"/><line class="cls-3" x1="60.79" y1="199.06" x2="60.19" y2="200.38"/><line class="cls-3" x1="55.64" y1="200.38" x2="55.04" y2="199.06"/><line class="cls-3" x1="55.02" y1="198.94" x2="53.61" y2="199.26"/><line class="cls-3" x1="51.46" y1="193.88" x2="50.86" y2="195.2"/><line class="cls-3" x1="50.86" y1="192.57" x2="51.46" y2="193.89"/><line class="cls-3" x1="54.79" y1="188.72" x2="53.35" y2="188.77"/><line class="cls-3" x1="54.94" y1="188.77" x2="55.53" y2="187.45"/><line class="cls-3" x1="60.85" y1="189" x2="60.25" y2="187.68"/><line class="cls-3" x1="62.34" y1="188.79" x2="60.91" y2="188.97"/><line class="cls-3" x1="65.11" y1="192.45" x2="64.51" y2="193.77"/><line class="cls-3" x1="64.51" y1="193.97" x2="65.11" y2="195.28"/><path class="cls-3" d="M131.53,117l8.79,15" transform="translate(8.5 8.5)"/><path class="cls-3" d="M140.52,117l-8.87,15.1" transform="translate(8.5 8.5)"/><path class="cls-3" d="M126.88,124.65l18.14-.13" transform="translate(8.5 8.5)"/><polygon class="cls-3" points="144.51 129.3 145.44 131.41 147.72 131.16 146.37 133.01 147.72 134.86 145.44 134.61 144.51 136.72 143.59 134.61 141.31 134.86 142.66 133.01 141.31 131.16 143.59 131.41 144.51 129.3"/><line class="cls-3" x1="148.95" y1="138.18" x2="147.5" y2="138.18"/><line class="cls-3" x1="147.39" y1="138.27" x2="146.79" y2="139.58"/><line class="cls-3" x1="142.23" y1="139.58" x2="141.63" y2="138.27"/><line class="cls-3" x1="141.62" y1="138.14" x2="140.21" y2="138.46"/><line class="cls-3" x1="138.06" y1="133.09" x2="137.46" y2="134.4"/><line class="cls-3" x1="137.46" y1="131.78" x2="138.06" y2="133.09"/><line class="cls-3" x1="141.39" y1="127.93" x2="139.94" y2="127.98"/><line class="cls-3" x1="141.53" y1="127.97" x2="142.13" y2="126.66"/><line class="cls-3" x1="147.45" y1="128.2" x2="146.85" y2="126.88"/><line class="cls-3" x1="148.94" y1="128" x2="147.51" y2="128.18"/><line class="cls-3" x1="151.71" y1="131.66" x2="151.11" y2="132.97"/><line class="cls-3" x1="151.11" y1="133.17" x2="151.71" y2="134.49"/><path class="cls-6" d="M169.56,263.41" transform="translate(8.5 8.5)"/><path class="cls-6" d="M252.94,263.84c65.84,0.21,77.69-.36,143.53-0.15a6.17,6.17,0,0,0,4.94-2.17,5.46,5.46,0,0,0,.79-5.53c-0.11-.24-1.09-2.29-2.67-2.17a2.28,2.28,0,0,0-2,1.78,2.63,2.63,0,0,0,1.09,2.37c0.9,0.72,2,.67,3.36.59,2-.11,3.65-0.21,4.84-1.48a5.3,5.3,0,0,0,1.28-3.65,45.52,45.52,0,0,0-.06-4.74V33.61a8.62,8.62,0,0,0-.19-1.9c-0.18-.86-0.73-3.39-2.76-4.66-2.22-1.38-5.72-1-6.85.86a2.54,2.54,0,0,0-.1,2.66,2.44,2.44,0,0,0,2.95.67c1.14-.59,1.23-2.2,1.33-3.9,0.09-1.51.17-2.9-.76-4.09a5.15,5.15,0,0,0-2.85-1.62,9.42,9.42,0,0,0-3.43-.21H29.78c-0.8,0-1.72,0-3.1.11a5.88,5.88,0,0,0-3.43,1.77A5.46,5.46,0,0,0,22,29.06c0.06,0.12,1.07,2.19,2.66,2.1a2.52,2.52,0,0,0,1.77-1.11,2.45,2.45,0,0,0,.33-2.33c-0.64-1.29-2.88-1.25-4.32-1.22a7.68,7.68,0,0,0-2.55.44,4.79,4.79,0,0,0-2.33,1.55,5,5,0,0,0-.78,2.33,25.4,25.4,0,0,0-.39,4V251.21a9.85,9.85,0,0,0,.29,3.41,6.77,6.77,0,0,0,2.44,3.61c2.34,1.56,6,1.16,7.31-.68a2.57,2.57,0,0,0,.39-2.34,2.17,2.17,0,0,0-2-1.17c-1.26.07-2,1.36-2.24,1.85a5.93,5.93,0,0,0,0,5,4.08,4.08,0,0,0,1,1.56A4.62,4.62,0,0,0,26,263.49a34.42,34.42,0,0,0,4.29,0c46.28,0.31,93.36.52,140.28,0.43" transform="translate(8.5 8.5)"/><path class="cls-4" d="M271.49,245.23l-2.24-1.14a0.26,0.26,0,0,0-.24,0l-2.21,1.2a0.26,0.26,0,0,1-.38-0.27l0.39-2.48a0.26,0.26,0,0,0-.08-0.23l-1.82-1.73a0.26,0.26,0,0,1,.14-0.45l2.48-.4a0.26,0.26,0,0,0,.2-0.15l1.08-2.27a0.26,0.26,0,0,1,.47,0l1.14,2.24a0.26,0.26,0,0,0,.2.14l2.49,0.33a0.26,0.26,0,0,1,.15.44l-1.78,1.78a0.26,0.26,0,0,0-.07.23l0.46,2.47A0.26,0.26,0,0,1,271.49,245.23Z" transform="translate(8.5 8.5)"/><path class="cls-3" d="M234.48,202.36l8.79,15" transform="translate(8.5 8.5)"/><path class="cls-3" d="M243.47,202.36l-8.87,15.1" transform="translate(8.5 8.5)"/><path class="cls-3" d="M229.83,210l18.14-.13" transform="translate(8.5 8.5)"/><polygon class="cls-3" points="247.46 214.63 248.39 216.73 250.67 216.49 249.31 218.34 250.67 220.19 248.39 219.94 247.46 222.04 246.53 219.94 244.25 220.19 245.61 218.34 244.25 216.49 246.53 216.73 247.46 214.63"/><line class="cls-3" x1="251.89" y1="223.51" x2="250.45" y2="223.51"/><line class="cls-3" x1="250.33" y1="223.6" x2="249.74" y2="224.91"/><line class="cls-3" x1="245.18" y1="224.91" x2="244.58" y2="223.6"/><line class="cls-3" x1="244.57" y1="223.47" x2="243.16" y2="223.79"/><line class="cls-3" x1="241" y1="218.41" x2="240.4" y2="219.73"/><line class="cls-3" x1="240.4" y1="217.1" x2="241" y2="218.42"/><line class="cls-3" x1="244.33" y1="213.25" x2="242.89" y2="213.3"/><line class="cls-3" x1="244.48" y1="213.3" x2="245.08" y2="211.99"/><line class="cls-3" x1="250.39" y1="213.53" x2="249.79" y2="212.21"/><line class="cls-3" x1="251.89" y1="213.32" x2="250.45" y2="213.51"/><line class="cls-3" x1="254.66" y1="216.99" x2="254.06" y2="218.3"/><line class="cls-3" x1="254.06" y1="218.5" x2="254.66" y2="219.81"/><path class="cls-6" d="M102.33,178a64.2,64.2,0,0,0-10.81,5.9,56.08,56.08,0,0,0-9.63,8,54.36,54.36,0,0,0-7,9.14" transform="translate(8.5 8.5)"/><path class="cls-6" d="M97.41,189.19a11.87,11.87,0,0,1,.12-3.05,15.35,15.35,0,0,1,2-5c0.36-.65,1.32-2.22,1.54-2.55" transform="translate(8.5 8.5)"/><path class="cls-6" d="M89.35,176.4a14.44,14.44,0,0,0,3.19,1.39,15.07,15.07,0,0,0,4.14.61c1.28,0,4.08.08,4.86,0" transform="translate(8.5 8.5)"/><path class="cls-6" d="M93.85,190.37q0.67-2.08,1.48-4.3A38.24,38.24,0,0,1,98.11,180" transform="translate(8.5 8.5)"/><path class="cls-6" d="M85.83,178.9a35.4,35.4,0,0,0,4.29,1c1.75,0.27,6.36.22,7.77,0.25" transform="translate(8.5 8.5)"/><path class="cls-6" d="M91.36,194.3a15.92,15.92,0,0,1,0-4.35c0.38-2.92,2.47-6.72,3.25-8" transform="translate(8.5 8.5)"/><path class="cls-6" d="M87.81,195.14a21.46,21.46,0,0,1,.31-3.56,32.35,32.35,0,0,1,2.41-7" transform="translate(8.5 8.5)"/><path class="cls-6" d="M85.17,196.21a22.11,22.11,0,0,1,.32-3.12,38.26,38.26,0,0,1,2.24-6.46" transform="translate(8.5 8.5)"/><path class="cls-6" d="M83.31,196.93a11.26,11.26,0,0,1,0-2.51,26,26,0,0,1,1.79-5.6" transform="translate(8.5 8.5)"/><path class="cls-6" d="M80.5,198.78a15.8,15.8,0,0,1,.13-2.44,35.78,35.78,0,0,1,.83-3.94" transform="translate(8.5 8.5)"/><path class="cls-6" d="M78.53,199.87a3.55,3.55,0,0,1-.37-1.85,13.18,13.18,0,0,1,.33-2.19" transform="translate(8.5 8.5)"/><path class="cls-6" d="M76.63,201.27a7.52,7.52,0,0,1-.24-2.56" transform="translate(8.5 8.5)"/><path class="cls-6" d="M73.82,199.13a5.36,5.36,0,0,1,1.17-.41,10.6,10.6,0,0,1,1.4,0" transform="translate(8.5 8.5)"/><path class="cls-6" d="M73.57,196.66a10.22,10.22,0,0,0,2.13-.15,22.26,22.26,0,0,0,2.79-.68" transform="translate(8.5 8.5)"/><path class="cls-6" d="M81.83,181.48a14.18,14.18,0,0,0,8.84,1.15c0.93-.18,4.06-0.9,4.63-1.11" transform="translate(8.5 8.5)"/><path class="cls-6" d="M78.8,184.57a20.47,20.47,0,0,0,4.51.73,34,34,0,0,0,6.58-.27" transform="translate(8.5 8.5)"/><path class="cls-6" d="M76.84,188.16c1.36,0,2.83,0,4.4-.11s3.9-.18,5.19-0.37" transform="translate(8.5 8.5)"/><path class="cls-6" d="M75.65,190.74a19.22,19.22,0,0,0,3.61,0,33.4,33.4,0,0,0,4.51-.74" transform="translate(8.5 8.5)"/><path class="cls-6" d="M74.5,194.28c0.95-.12,1.94-0.28,3-0.47,0.69-.13,3.35-1.26,4-1.41" transform="translate(8.5 8.5)"/><path class="cls-6" d="M319.41,180.24a62.93,62.93,0,0,1,19.76,13.59,54.36,54.36,0,0,1,7,9.14" transform="translate(8.5 8.5)"/><path class="cls-6" d="M323.65,191.1a11.87,11.87,0,0,0-.12-3.05,15.35,15.35,0,0,0-2-5c-0.36-.65-1.32-2.22-1.54-2.55" transform="translate(8.5 8.5)"/><path class="cls-6" d="M331.71,178.3a14.44,14.44,0,0,1-3.19,1.39,15.07,15.07,0,0,1-4.14.61c-1.28,0-4.08.08-4.86,0" transform="translate(8.5 8.5)"/><path class="cls-6" d="M327.21,192.28q-0.67-2.08-1.48-4.3a38.24,38.24,0,0,0-2.78-6.08" transform="translate(8.5 8.5)"/><path class="cls-6" d="M335.22,180.81a35.4,35.4,0,0,1-4.29,1c-1.75.27-6.36,0.22-7.77,0.25" transform="translate(8.5 8.5)"/><path class="cls-6" d="M329.69,196.21a15.92,15.92,0,0,0,0-4.35c-0.38-2.92-2.47-6.72-3.25-8" transform="translate(8.5 8.5)"/><path class="cls-6" d="M333.24,197a21.46,21.46,0,0,0-.31-3.56,32.35,32.35,0,0,0-2.41-7" transform="translate(8.5 8.5)"/><path class="cls-6" d="M335.89,198.12a22.11,22.11,0,0,0-.32-3.12,38.26,38.26,0,0,0-2.24-6.46" transform="translate(8.5 8.5)"/><path class="cls-6" d="M337.74,198.84a11.26,11.26,0,0,0,0-2.51,26,26,0,0,0-1.79-5.6" transform="translate(8.5 8.5)"/><path class="cls-6" d="M340.56,200.69a15.8,15.8,0,0,0-.13-2.44,35.78,35.78,0,0,0-.83-3.94" transform="translate(8.5 8.5)"/><path class="cls-6" d="M342.53,201.78a3.55,3.55,0,0,0,.37-1.85,13.18,13.18,0,0,0-.33-2.19" transform="translate(8.5 8.5)"/><path class="cls-6" d="M344.43,203.18a7.52,7.52,0,0,0,.24-2.56" transform="translate(8.5 8.5)"/><path class="cls-6" d="M347.24,201a5.36,5.36,0,0,0-1.17-.41,10.6,10.6,0,0,0-1.4,0" transform="translate(8.5 8.5)"/><path class="cls-6" d="M347.49,198.57a10.22,10.22,0,0,1-2.13-.15,22.26,22.26,0,0,1-2.79-.68" transform="translate(8.5 8.5)"/><path class="cls-6" d="M339.22,183.39a14.18,14.18,0,0,1-8.84,1.15c-0.93-.18-4.06-0.9-4.63-1.11" transform="translate(8.5 8.5)"/><path class="cls-6" d="M342.26,186.47a20.47,20.47,0,0,1-4.51.73,34,34,0,0,1-6.58-.27" transform="translate(8.5 8.5)"/><path class="cls-6" d="M344.22,190.07c-1.36,0-2.83,0-4.4-.11s-3.9-.18-5.19-0.37" transform="translate(8.5 8.5)"/><path class="cls-6" d="M345.41,192.65a19.22,19.22,0,0,1-3.61,0,33.4,33.4,0,0,1-4.51-.74" transform="translate(8.5 8.5)"/><path class="cls-6" d="M346.55,196.19c-0.95-.12-1.94-0.28-3-0.47-0.69-.13-3.35-1.26-4-1.41" transform="translate(8.5 8.5)"/><path class="cls-10" d="M160.9,196.16A77.4,77.4,0,0,0,230,211.48" transform="translate(8.5 8.5)"/><path class="cls-10" d="M133.83,134.08a76.32,76.32,0,0,0,3.68,26.76" transform="translate(8.5 8.5)"/><path class="cls-10" d="M135.79,119.74q-0.61,2.6-1,5.24" transform="translate(8.5 8.5)"/><path class="cls-10" d="M286.21,123.57a76.82,76.82,0,0,0-147.86-12.49" transform="translate(8.5 8.5)"/><path class="cls-10" d="M246.35,205.29c27.34-13.39,42.34-43.39,41-72.2" transform="translate(8.5 8.5)"/><path class="cls-6" d="M282.13,192.6c4.41-3.87,18.47-7.34,21.39-7.75" transform="translate(8.5 8.5)"/><path class="cls-6" d="M283.59,200.75" transform="translate(8.5 8.5)"/><path class="cls-6" d="M286.1,198" transform="translate(8.5 8.5)"/><path class="cls-6" d="M278.81,186" transform="translate(8.5 8.5)"/><path class="cls-6" d="M292.89,194.35a21.46,21.46,0,0,0-3.38-1.15,32.35,32.35,0,0,0-7.38-.6" transform="translate(8.5 8.5)"/><path class="cls-6" d="M294.93,192.35a22.11,22.11,0,0,0-3-1,38.26,38.26,0,0,0-6.82-.54" transform="translate(8.5 8.5)"/><path class="cls-6" d="M296.34,190.94a11.26,11.26,0,0,0-2.3-1,26,26,0,0,0-5.85-.6" transform="translate(8.5 8.5)"/><path class="cls-6" d="M299.16,189.11a15.8,15.8,0,0,0-2.29-.86,35.78,35.78,0,0,0-3.94-.82" transform="translate(8.5 8.5)"/><path class="cls-6" d="M300.95,187.74a3.55,3.55,0,0,0-1.54-1.08,13.18,13.18,0,0,0-2.14-.58" transform="translate(8.5 8.5)"/><path class="cls-6" d="M303,186.56a7.52,7.52,0,0,0-2.25-1.25" transform="translate(8.5 8.5)"/><path class="cls-6" d="M302.16,183.12a5.36,5.36,0,0,0-.84.91,10.6,10.6,0,0,0-.57,1.27" transform="translate(8.5 8.5)"/><path class="cls-6" d="M300,181.91a10.22,10.22,0,0,1-1,1.89,22.26,22.26,0,0,1-1.74,2.29" transform="translate(8.5 8.5)"/><path class="cls-6" d="M286.82,181.85a20.47,20.47,0,0,1-1.14,4.43,34,34,0,0,1-2.89,5.92" transform="translate(8.5 8.5)"/><path class="cls-6" d="M290.9,181.5c-0.52,1.25-1.14,2.59-1.87,4s-1.73,3.5-2.42,4.6" transform="translate(8.5 8.5)"/><path class="cls-6" d="M293.74,181.44a19.22,19.22,0,0,1-1.42,3.32,33.4,33.4,0,0,1-2.48,3.84" transform="translate(8.5 8.5)"/><path class="cls-6" d="M297.44,181.81c-0.49.82-1,1.66-1.62,2.52-0.4.58-2.5,2.56-2.89,3.1" transform="translate(8.5 8.5)"/><path class="cls-6" d="M140.07,192.6c-4.41-3.87-18.47-7.34-21.39-7.75" transform="translate(8.5 8.5)"/><path class="cls-6" d="M138.6,200.75" transform="translate(8.5 8.5)"/><path class="cls-6" d="M136.09,198" transform="translate(8.5 8.5)"/><path class="cls-6" d="M143.38,186" transform="translate(8.5 8.5)"/><path class="cls-6" d="M129.3,194.35a21.46,21.46,0,0,1,3.38-1.15,32.35,32.35,0,0,1,7.38-.6" transform="translate(8.5 8.5)"/><path class="cls-6" d="M127.26,192.35a22.11,22.11,0,0,1,3-1,38.26,38.26,0,0,1,6.82-.54" transform="translate(8.5 8.5)"/><path class="cls-6" d="M125.85,190.94a11.26,11.26,0,0,1,2.3-1,26,26,0,0,1,5.85-.6" transform="translate(8.5 8.5)"/><path class="cls-6" d="M123,189.11a15.8,15.8,0,0,1,2.29-.86,35.78,35.78,0,0,1,3.94-.82" transform="translate(8.5 8.5)"/><path class="cls-6" d="M121.24,187.74a3.55,3.55,0,0,1,1.54-1.08,13.18,13.18,0,0,1,2.14-.58" transform="translate(8.5 8.5)"/><path class="cls-6" d="M119.2,186.56a7.52,7.52,0,0,1,2.25-1.25" transform="translate(8.5 8.5)"/><path class="cls-6" d="M120,183.12a5.36,5.36,0,0,1,.84.91,10.6,10.6,0,0,1,.57,1.27" transform="translate(8.5 8.5)"/><path class="cls-6" d="M122.19,181.91a10.22,10.22,0,0,0,1,1.89,22.26,22.26,0,0,0,1.74,2.29" transform="translate(8.5 8.5)"/><path class="cls-6" d="M135.38,181.85a20.47,20.47,0,0,0,1.14,4.43,34,34,0,0,0,2.89,5.92" transform="translate(8.5 8.5)"/><path class="cls-6" d="M131.29,181.5c0.52,1.25,1.14,2.59,1.87,4s1.73,3.5,2.42,4.6" transform="translate(8.5 8.5)"/><path class="cls-6" d="M128.45,181.44a19.22,19.22,0,0,0,1.42,3.32,33.4,33.4,0,0,0,2.48,3.84" transform="translate(8.5 8.5)"/><path class="cls-6" d="M124.75,181.81c0.49,0.82,1,1.66,1.62,2.52,0.4,0.58,2.5,2.56,2.89,3.1" transform="translate(8.5 8.5)"/><path class="cls-3" d="M85.47,28.33l8.79,15" transform="translate(8.5 8.5)"/><path class="cls-3" d="M94.46,28.33l-8.87,15.1" transform="translate(8.5 8.5)"/><path class="cls-3" d="M80.82,35.95L99,35.82" transform="translate(8.5 8.5)"/><polygon class="cls-3" points="98.45 40.6 99.38 42.7 101.66 42.46 100.3 44.31 101.66 46.16 99.38 45.91 98.45 48.02 97.52 45.91 95.24 46.16 96.6 44.31 95.24 42.46 97.52 42.7 98.45 40.6"/><line class="cls-3" x1="102.88" y1="49.48" x2="101.44" y2="49.48"/><line class="cls-3" x1="101.32" y1="49.57" x2="100.72" y2="50.88"/><line class="cls-3" x1="96.17" y1="50.88" x2="95.57" y2="49.57"/><line class="cls-3" x1="95.55" y1="49.44" x2="94.14" y2="49.76"/><line class="cls-3" x1="91.99" y1="44.39" x2="91.39" y2="45.7"/><line class="cls-3" x1="91.39" y1="43.08" x2="91.99" y2="44.39"/><line class="cls-3" x1="95.32" y1="39.23" x2="93.88" y2="39.28"/><line class="cls-3" x1="95.47" y1="39.27" x2="96.06" y2="37.96"/><line class="cls-3" x1="101.38" y1="39.5" x2="100.78" y2="38.19"/><line class="cls-3" x1="102.87" y1="39.3" x2="101.44" y2="39.48"/><line class="cls-3" x1="105.64" y1="42.96" x2="105.05" y2="44.28"/><line class="cls-3" x1="105.05" y1="44.47" x2="105.64" y2="45.79"/><path class="cls-3" d="M27.62,100.75l8.79,15" transform="translate(8.5 8.5)"/><path class="cls-3" d="M36.61,100.75l-8.87,15.1" transform="translate(8.5 8.5)"/><path class="cls-3" d="M23,108.37l18.14-.13" transform="translate(8.5 8.5)"/><polygon class="cls-3" points="40.6 113.02 41.53 115.13 43.81 114.88 42.45 116.73 43.81 118.58 41.53 118.33 40.6 120.44 39.67 118.33 37.39 118.58 38.75 116.73 37.39 114.88 39.67 115.13 40.6 113.02"/><line class="cls-3" x1="45.03" y1="121.9" x2="43.59" y2="121.9"/><line class="cls-3" x1="43.47" y1="121.99" x2="42.88" y2="123.3"/><line class="cls-3" x1="38.32" y1="123.3" x2="37.72" y2="121.99"/><line class="cls-3" x1="37.71" y1="121.86" x2="36.3" y2="122.18"/><line class="cls-3" x1="34.14" y1="116.81" x2="33.55" y2="118.12"/><line class="cls-3" x1="33.55" y1="115.5" x2="34.14" y2="116.81"/><line class="cls-3" x1="37.47" y1="111.65" x2="36.03" y2="111.7"/><line class="cls-3" x1="37.62" y1="111.69" x2="38.22" y2="110.38"/><line class="cls-3" x1="43.53" y1="111.92" x2="42.94" y2="110.6"/><line class="cls-3" x1="45.03" y1="111.72" x2="43.59" y2="111.9"/><line class="cls-3" x1="47.8" y1="115.38" x2="47.2" y2="116.69"/><line class="cls-3" x1="47.2" y1="116.89" x2="47.8" y2="118.21"/><path class="cls-3" d="M389.58,200.17l8.79,15" transform="translate(8.5 8.5)"/><path class="cls-3" d="M398.57,200.17l-8.87,15.1" transform="translate(8.5 8.5)"/><path class="cls-3" d="M384.93,207.78l18.14-.13" transform="translate(8.5 8.5)"/><polygon class="cls-3" points="402.56 212.44 403.49 214.54 405.77 214.29 404.42 216.14 405.77 218 403.49 217.75 402.56 219.85 401.64 217.75 399.35 218 400.71 216.14 399.35 214.29 401.64 214.54 402.56 212.44"/><line class="cls-3" x1="406.99" y1="221.31" x2="405.55" y2="221.31"/><line class="cls-3" x1="405.43" y1="221.4" x2="404.84" y2="222.72"/><line class="cls-3" x1="400.28" y1="222.72" x2="399.68" y2="221.4"/><line class="cls-3" x1="399.67" y1="221.28" x2="398.26" y2="221.59"/><line class="cls-3" x1="396.1" y1="216.22" x2="395.51" y2="217.54"/><line class="cls-3" x1="395.51" y1="214.91" x2="396.1" y2="216.23"/><line class="cls-3" x1="399.43" y1="211.06" x2="397.99" y2="211.11"/><line class="cls-3" x1="399.58" y1="211.11" x2="400.18" y2="209.79"/><line class="cls-3" x1="405.49" y1="211.33" x2="404.9" y2="210.02"/><line class="cls-3" x1="406.99" y1="211.13" x2="405.56" y2="211.31"/><line class="cls-3" x1="409.76" y1="214.79" x2="409.16" y2="216.11"/><line class="cls-3" x1="409.16" y1="216.3" x2="409.76" y2="217.62"/><path class="cls-4" d="M349.83,33.66c-1.4-.67-3.41-1.6-5.88-2.62a54.41,54.41,0,0,0-9.57-3.32,30.85,30.85,0,0,0-10.07-.53c-8.18,1.05-13.81,6.11-16.18,8.54l4.41-.93-4,8.25L314,40.74l-4.4,6.62,3.89-1.44-1.9,5.5a37.21,37.21,0,0,1,8.15-9,36.74,36.74,0,0,1,12.57-6.51,31.9,31.9,0,0,1,15.16-1" transform="translate(8.5 8.5)"/><path class="cls-3" d="M32.5,184.21a7,7,0,0,1-.88,2.26A3.58,3.58,0,0,1,29.4,188a3.93,3.93,0,0,1-1.72-.22,2.86,2.86,0,0,1-2-1.63,6.86,6.86,0,0,1-.09-2.86c0.11-1.49,4.09-21.23,4.51-22.25a8.62,8.62,0,0,1,2.35-3.44,9.63,9.63,0,0,1,3.57-2.24,10.1,10.1,0,0,1,4.52-.14,8.5,8.5,0,0,1,5.08,3,8.12,8.12,0,0,1,1.8,3.09,8.81,8.81,0,0,1-.36,5.62c-0.48,1.44-.81,2.44-1.85,3a3.45,3.45,0,0,1-3.13,0,3,3,0,0,1-1.65-1.84c-0.12-.59.14-0.74,0.33-2.24a3.66,3.66,0,0,0,0-1.9,2.51,2.51,0,0,0-1.63-1.29,2.44,2.44,0,0,0-2,.4c-0.58.49-.52,1.2-0.78,2.42S32.71,183.5,32.5,184.21Z" transform="translate(8.5 8.5)"/><line class="cls-3" x1="34.69" y1="187.87" x2="41.01" y2="192.72"/><line class="cls-3" x1="35.95" y1="181.7" x2="42.36" y2="186.96"/><line class="cls-3" x1="37.17" y1="175.85" x2="43.53" y2="181.1"/><line class="cls-3" x1="38.65" y1="169.57" x2="44.62" y2="175.95"/><line class="cls-3" x1="43.93" y1="164.13" x2="46.22" y2="171.28"/><line class="cls-3" x1="52.54" y1="165.19" x2="48.69" y2="171.69"/><line class="cls-3" x1="56.3" y1="172.73" x2="49.31" y2="174.38"/><path class="cls-4" d="M34.16,136l-2.24-1.14a0.26,0.26,0,0,0-.24,0l-2.21,1.2a0.26,0.26,0,0,1-.38-0.27l0.39-2.48a0.26,0.26,0,0,0-.08-0.23l-1.82-1.73a0.26,0.26,0,0,1,.14-0.45l2.48-.4a0.26,0.26,0,0,0,.2-0.15l1.08-2.27a0.26,0.26,0,0,1,.47,0l1.14,2.24a0.26,0.26,0,0,0,.2.14l2.49,0.33a0.26,0.26,0,0,1,.15.44L34.15,133a0.26,0.26,0,0,0-.07.23l0.46,2.47A0.26,0.26,0,0,1,34.16,136Z" transform="translate(8.5 8.5)"/><path class="cls-4" d="M113.59,34.09L111.35,33a0.26,0.26,0,0,0-.24,0l-2.21,1.2a0.26,0.26,0,0,1-.38-0.27l0.39-2.48a0.26,0.26,0,0,0-.08-0.23L107,29.44a0.26,0.26,0,0,1,.14-0.45l2.48-.4a0.26,0.26,0,0,0,.2-0.15l1.08-2.27a0.26,0.26,0,0,1,.47,0l1.14,2.24a0.26,0.26,0,0,0,.2.14l2.49,0.33a0.26,0.26,0,0,1,.15.44l-1.78,1.78a0.26,0.26,0,0,0-.07.23L114,33.81A0.26,0.26,0,0,1,113.59,34.09Z" transform="translate(8.5 8.5)"/><path class="cls-3" d="M92.18,124.82l8.79,15" transform="translate(8.5 8.5)"/><path class="cls-3" d="M101.17,124.82l-8.87,15.1" transform="translate(8.5 8.5)"/><path class="cls-3" d="M87.53,132.44l18.14-.13" transform="translate(8.5 8.5)"/><polygon class="cls-3" points="105.16 137.09 106.09 139.19 108.37 138.94 107.02 140.8 108.37 142.65 106.09 142.4 105.16 144.5 104.24 142.4 101.95 142.65 103.31 140.8 101.95 138.94 104.24 139.19 105.16 137.09"/><line class="cls-3" x1="109.6" y1="145.97" x2="108.15" y2="145.97"/><line class="cls-3" x1="108.04" y1="146.06" x2="107.44" y2="147.37"/><line class="cls-3" x1="102.88" y1="147.37" x2="102.28" y2="146.06"/><line class="cls-3" x1="102.27" y1="145.93" x2="100.86" y2="146.25"/><line class="cls-3" x1="98.71" y1="140.87" x2="98.11" y2="142.19"/><line class="cls-3" x1="98.11" y1="139.56" x2="98.71" y2="140.88"/><line class="cls-3" x1="102.04" y1="135.71" x2="100.59" y2="135.76"/><line class="cls-3" x1="102.18" y1="135.76" x2="102.78" y2="134.44"/><line class="cls-3" x1="108.09" y1="135.99" x2="107.5" y2="134.67"/><line class="cls-3" x1="109.59" y1="135.78" x2="108.16" y2="135.97"/><line class="cls-3" x1="112.36" y1="139.45" x2="111.76" y2="140.76"/><line class="cls-3" x1="111.76" y1="140.96" x2="112.36" y2="142.27"/><path class="cls-3" d="M285.61,246.49l8.79,15" transform="translate(8.5 8.5)"/><path class="cls-3" d="M294.6,246.49l-8.87,15.1" transform="translate(8.5 8.5)"/><path class="cls-3" d="M281,254.11L299.1,254" transform="translate(8.5 8.5)"/><polygon class="cls-3" points="298.59 258.76 299.52 260.87 301.8 260.62 300.45 262.47 301.8 264.32 299.52 264.07 298.59 266.18 297.67 264.07 295.38 264.32 296.74 262.47 295.38 260.62 297.67 260.87 298.59 258.76"/><line class="cls-3" x1="303.03" y1="267.64" x2="301.58" y2="267.64"/><line class="cls-3" x1="301.47" y1="267.73" x2="300.87" y2="269.04"/><line class="cls-3" x1="296.31" y1="269.04" x2="295.71" y2="267.73"/><line class="cls-3" x1="295.7" y1="267.6" x2="294.29" y2="267.92"/><line class="cls-3" x1="292.14" y1="262.55" x2="291.54" y2="263.86"/><line class="cls-3" x1="291.54" y1="261.24" x2="292.14" y2="262.55"/><line class="cls-3" x1="295.47" y1="257.39" x2="294.02" y2="257.44"/><line class="cls-3" x1="295.61" y1="257.43" x2="296.21" y2="256.12"/><line class="cls-3" x1="301.53" y1="257.66" x2="300.93" y2="256.35"/><line class="cls-3" x1="303.02" y1="257.46" x2="301.59" y2="257.64"/><line class="cls-3" x1="305.79" y1="261.12" x2="305.19" y2="262.44"/><line class="cls-3" x1="305.19" y1="262.63" x2="305.79" y2="263.95"/><path class="cls-4" d="M65.48,35.54L63.23,34.4a0.26,0.26,0,0,0-.24,0l-2.21,1.2a0.26,0.26,0,0,1-.38-0.27l0.39-2.48a0.26,0.26,0,0,0-.08-0.23l-1.82-1.73A0.26,0.26,0,0,1,59,30.44l2.48-.4a0.26,0.26,0,0,0,.2-0.15l1.08-2.27a0.26,0.26,0,0,1,.47,0l1.14,2.24a0.26,0.26,0,0,0,.2.14l2.49,0.33a0.26,0.26,0,0,1,.15.44l-1.78,1.78a0.26,0.26,0,0,0-.07.23l0.46,2.47A0.26,0.26,0,0,1,65.48,35.54Z" transform="translate(8.5 8.5)"/><path class="cls-8" d="M161,231.89l0.18-10.61a3.71,3.71,0,0,0-.72-3.24,3.93,3.93,0,0,0-2.88-.72,16.11,16.11,0,0,0-4,.72s-1.3.28-3.78,0.54c-3.4.35-6.15-1.29-9.53-2.7A54.62,54.62,0,0,0,130.09,213c-3.62-.64-8.94-0.71-16,2.16l-0.9,24.28a22.52,22.52,0,0,1,4.14-1.8,25.83,25.83,0,0,1,8.45-1.08,27.61,27.61,0,0,1,7.38.72c3.53,0.9,4.38,2,8.63,3.42a38.73,38.73,0,0,0,5.76,1.44" transform="translate(8.5 8.5)"/><path class="cls-8" d="M122.42,237.39l-0.1,6.86a7.53,7.53,0,0,1-3.06,2.86,8.45,8.45,0,0,1-3.9.68c-1.77,0-12.15,1.35-15.49,1.57l6.84-9.89-6.3-11.15,13.13-1.08" transform="translate(8.5 8.5)"/><path class="cls-8" d="M122.32,244.24a27.41,27.41,0,0,0-3.73-3.13,25.43,25.43,0,0,0-5.41-1.66" transform="translate(8.5 8.5)"/><path class="cls-8" d="M264.84,232.42V220.2a2.76,2.76,0,0,1,.84-2.64,3.15,3.15,0,0,1,2.52-.12c3.07,0.61,4.6.91,5.27,1.08,1.09,0.27,2.2.29,7.79-1.32,5.26-1.52,6.07-2.06,10.06-3.23,4.74-1.39,7.11-2.09,9.7-2a19.54,19.54,0,0,1,10.3,3.35l0.24,24.31a9,9,0,0,0-4.19,1,9.27,9.27,0,0,0-3.23,2.75c-0.75,1-1.21,1.54-1.08,2.16,0.26,1.26,2.8,1.72,4,1.92,5.84,1,14.38,1.48,18.33,1.68l-7.07-9.7L325.33,228c-4.19-.28-9.7-0.56-13.9-0.83" transform="translate(8.5 8.5)"/><path class="cls-8" d="M264.86,219.8c0.47,1.62,3,3.39,4.3,3.63s1.9-.07,3.71.12c1.66,0.17,3.92.9,4.5,1.89,0.67,1.15-1.15,2.42-1.15,2.42a12.5,12.5,0,0,1-5.63,3.11c-4.91.95-9.66,2.71-14.61,3.35-12.73,1.66-9.49,1.53-15.45,2.16-6.13.64-14.36,1.29-24.19,1.44A239.48,239.48,0,0,1,184,236.49c-9.68-1.12-7.22-1.49-16.29-2.52-1.9-.22-5.58-1.14-12.94-3a11.76,11.76,0,0,1-4.91-2.75c-0.71-.67-1.82-1.76-1.56-2.75s1.35-1.22,2.4-1.56c2.33-.74,3.46-0.2,5.51-0.6,0.95-.18,3.94-0.58,4.69-4.76" transform="translate(8.5 8.5)"/><path class="cls-8" d="M148.3,225.47c0,7.79,0,20.71,0,28.5a22.21,22.21,0,0,0,4.83,4.22,23.45,23.45,0,0,0,7.25,3c8.82,2.3,13.23,3.44,15.7,3.82,9.07,1.4,15.94,1.64,27.78,2,8.17,0.26,12.25.39,17.91,0.2a216.6,216.6,0,0,0,22.74-2c6.23-.82,1.75-0.45,16.71-3,3.57-.61,7.29-1.23,11.27-3.82a23.06,23.06,0,0,0,4.83-4.23v-28" transform="translate(8.5 8.5)"/><path class="cls-8" d="M277.51,242a43.43,43.43,0,0,0,5.35-.87c3.31-.93,4.74-1.91,7.33-2.9a29.57,29.57,0,0,1,8.2-1.83c2.17-.14,8.56,1.38,13.15,3.18" transform="translate(8.5 8.5)"/><path class="cls-8" d="M303.05,245.47c0-1.45-.15-7-0.15-8.45" transform="translate(8.5 8.5)"/><text class="cls-11" transform="matrix(0.97, 0.25, -0.25, 0.97, 168.78, 258.44)">t</text><text class="cls-11" transform="translate(173.39 259.67) rotate(14.1)">w</text><text class="cls-11" transform="translate(182.75 261.99) rotate(9.69)">i</text><text class="cls-11" transform="translate(186.71 262.64) rotate(6.96)">c</text><text class="cls-11" transform="matrix(1, 0.09, -0.09, 1, 191.82, 263.26)">e</text><text class="cls-11" transform="matrix(1, 0.05, -0.05, 1, 196.48, 263.67)"> </text><text class="cls-11" transform="translate(202.67 264) rotate(2.08)">u</text><text class="cls-11" transform="translate(209.38 264.24) rotate(1.8)">p</text><text class="cls-11" transform="matrix(1, 0.03, -0.03, 1, 216.47, 264.47)">o</text><text class="cls-11" transform="translate(221.76 264.63) rotate(-0.13)">n</text><text class="cls-11" transform="translate(229.42 264.59) rotate(-2.48)"> </text><text class="cls-11" transform="translate(235.82 264.31) rotate(-4.43)">a</text><text class="cls-11" transform="matrix(0.99, -0.11, 0.11, 0.99, 242.52, 263.79)"> </text><text class="cls-11" transform="translate(248.67 263.1) rotate(-7.32)">t</text><text class="cls-11" transform="matrix(0.99, -0.17, 0.17, 0.99, 253.6, 262.51)">i</text><text class="cls-11" transform="matrix(0.98, -0.18, 0.18, 0.98, 257.88, 261.68)">m</text><text class="cls-11" transform="translate(267.35 259.94) rotate(-10.01)">e</text><path class="cls-5" d="M185.17,162.59c-7.38,2.22-11.46,2.52-12.9,1.38,0,0-.29.84,1.41,2,2.77,1.91,8.55.18,12.73-.9s21.73-7.59,21.73-7.59L207.61,155S192.55,160.37,185.17,162.59Z" transform="translate(8.5 8.5)"/><path class="cls-5" d="M267.64,143.07c-5-.76-24.25,1.26-40.77,5.58v2.75s18.54-4,25.11-4.36,17.69-.68,19.13,3.28C272.19,147,272.68,143.84,267.64,143.07Z" transform="translate(8.5 8.5)"/><path class="cls-5" d="M209.62,127.3a11.86,11.86,0,0,0-.7,4.9c0,0.37,1.94,0,1.94,0,0.5-1.69,1.78-4.66,2.2-4.9C211.48,126.8,210.27,126.08,209.62,127.3Z" transform="translate(8.5 8.5)"/><path class="cls-5" d="M221.05,134.09a2.29,2.29,0,0,1,1.61-1.73,3.29,3.29,0,0,0-3.8.29,4.71,4.71,0,0,0-1.31,3.9,47.6,47.6,0,0,1-5.53,9.58c-0.9,1.1-2.47,1.49-2.74.22s1.6-7.76,1.94-9.68-2.44-2-3.42-1.66c0.35,0.38-.06,2.54-0.46,4.74-1.65,4.45-5.78,10.67-7.16,9.75-1.62-1.08,2.34-8.31,2.85-9.57s-0.93-1.23-2.85-1.62a12.38,12.38,0,0,1-2.22-.57c0.83-1.9,1.43-3.45,1.68-4.26,0.53-1.73,1.46-4.75-.57-5.67-2.25-1-6.09,1.68-5.88,5.85a5.47,5.47,0,0,0,3.07,4.87c-0.84,1.86-1.76,3.71-2.59,5.3-1.63,3.1-4.14,7.08-4.95,6.84s0.39-5.62,1-8.28a2.32,2.32,0,0,0-1.11-2.85c-1-.6-2.25-0.12-4,2.37a75.2,75.2,0,0,0-4.47,8.58s2.82-13,3.48-17.16-1.41-5.28-2.76-5c1.2,0.57-.78,8.52-1.38,11.34l-0.38,1.79c-0.85,2.27-4.43,11-11.5,17.3-7.95,7.12-11.19-5.09-9.65-13.55,6.16-.3,12.24-4.25,13.92-8.09,1.8-4.1,1.08-6-1.17-7.74s-6.7-.9-9.67,2.34a22.43,22.43,0,0,0-6.31,11.69,9.27,9.27,0,0,1-5.3-3.9c-1.44-2.79.31-6.21,2.07-7.74s4.68-.9,4.68-0.9c-1.08-1.66-4.59-4.41-8.15.4-3.43,4.65.85,11.79,6.42,13.55q-0.14.84-.26,1.75c-1,8.23,3.33,14.94,9,14.62,5.16-.28,10.28-5.66,14.67-14-0.58,2.83-1.11,5.61-1.27,7-0.33,2.76.9,2.94,2.19,3.06,0.33-1.08,1.59-4.65,2.94-7.77s4-7.8,4.74-7.53-0.41,4.07-1.08,6.81c-0.81,3.33,1.29,7,4.23,3.63,2.71-3.12,5.67-8.84,7.68-13.26l0.93,0.33c1.32,0.48,1.77-.51.48,2s-2.85,9.84,1.23,9.48c3.28-.29,5.93-6,6.83-8.22,0,0.15,0,.3-0.05.44-0.17,1.67,0,3.82,1.3,4.84a2.44,2.44,0,0,0,3.49,0c3.46-3,5.64-8.16,6.21-9.63,0.05,0.21.11,0.41,0.18,0.59,0.52,1.46,3.88,9.45,3.46,14.34s-3.27,6.63-5.4,6.84-3.54-2.34-3.87-3.63-0.42-5.19,2.16-6.84c-2-1.44-5,1.26-5,4,0,4.5,2.67,7.62,6.3,7.62s7.62-4,8.43-6.69a17.75,17.75,0,0,0-1.14-10.95C221.2,139.73,220.14,136.67,221.05,134.09Zm-50.56-3.31c2.7,3-.45,9.36-7,12.15a12.56,12.56,0,0,1-5.2,1C160.33,135.67,167.84,127.83,170.49,130.79Zm25,4.8c-1.47-2.16,1-7.74,3-6.9,1.29,0.52.12,4.32-1.64,8.44A6.59,6.59,0,0,1,195.49,135.59Z" transform="translate(8.5 8.5)"/><path class="cls-5" d="M291.22,127.77c-1.8-.68-6.24-0.27-10,1.44l-0.46-.77c-0.85-1.48-1.33-2.39-1-3.94a5.3,5.3,0,0,1,1.89-3c-0.5-.29-3.62-0.79-4.7,1.55a4.87,4.87,0,0,0-.37,2.87c-0.88,1.73-3.9,7.44-7,10.72a27.89,27.89,0,0,1,2.83-10.8c-1-.52-2.61-1.17-2.61-1.17s-0.26.59-.7,1.53c-1-.68-3.75-2.19-5.29-0.81-1.21,1.09-2.7,3.9-3.67,6.47l0,0s-4.08,6.06-4.89,7.11-1.11.18-.87-1.17,1.71-7,1.83-7.71a0.88,0.88,0,0,0-.75-1.11c-0.51-.15-3-1.26-3.69-0.18s-3.69,7-4.29,8.34c0.54-3.84.6-5.46,0.72-6.42s-0.15-1.71-1.05-1.83a2.94,2.94,0,0,0-3.29,1.2c-1.12,1.56-4.93,8.79-4.93,8.79s2-7.62,2.7-9.48c-2-.9-2.76-0.87-3.51.45s-3.72,9.58-6.63,13.12-1.71-4.78-1.32-6.46c0.27-1.16,2-7.81,3.75-12.93,6.33,0.47,13.27,1.45,17.31,1.39,6.21-.09,13.38-0.25,18.72-3.16s9-8.94,7.05-14.49-7.23-10-15.93-9-12.64,9.75-12.63,13.17c0,0.46.2,1.74,2.24,1.36,2.62-.48,2.86-1,2.86-1S251,111,252,107.51s6.24-7.8,12.24-7.14,9.63,3.69,10.89,8.94-5.1,12.24-14.25,13a117.87,117.87,0,0,1-20.75-.35c-1-.09-3.09-0.2-5.61-0.28a18.39,18.39,0,0,1,1.67-3.51s-2.85-1-3.63.54a28.71,28.71,0,0,0-1.09,2.89,74.26,74.26,0,0,0-11.33.38c-3.84.75-3.93,1.68-3.78,2.91a2.65,2.65,0,0,0,.55,1.59c0.08-.66.68-2.25,7.85-3a41.53,41.53,0,0,1,6.13-.09c-1.1,3.38-2.37,7.55-2.77,9-0.66,2.44-2.13,8.77-.3,12s6.6-3.78,8.37-8.13c-0.84,3.72-.87,5.16-0.66,6.48,0.12,0,.51.27,1,0.49,1.21,0.55,1.49.83,1.94-.52s4.2-9.81,6-12,0.84-.39.78,0.45-0.87,8-.93,8.73-0.09,1,.45,1.32,1.38,0.87,1.38.87,0.33,0.42.81-.84,3.84-10,6.21-12.15c-0.72,3.18-1.53,7.14-1.68,8.07a2.22,2.22,0,0,0,.75,2.34c0.84,0.78,2.55,1.86,3.21.93,0.43-.6,2.49-3.84,3.89-6a8.08,8.08,0,0,0-.23,1.41c-0.13,2.52,1.4,3.94,3.94,4.19,1.26-2.5,3.94-6.71,3.94-6.71l-0.45,4a11.42,11.42,0,0,0,2.72,2.11,132.52,132.52,0,0,0,7.86-11.59c0.14,0.33.28,0.62,0.38,0.86s0.6,1.07,1.13,2c-3.5,2.42-4.9,5.57-5,7.91-0.16,2.52,2.18,5.15,5.06,4.34a7.42,7.42,0,0,0,5.15-6.59,10.82,10.82,0,0,0-1.61-5.4,16,16,0,0,1,3.41-1.24c2.86-.58,5.85.25,7,1.48C292.87,129.66,293.32,128.56,291.22,127.77Zm-28.48,9.65c-1,1.28-1.42-1.64-.79-3.2a47.55,47.55,0,0,1,3.38-6.55c0.7-.86,1.22-1.28,2.09-0.9a11.24,11.24,0,0,1,1.11.57A60.31,60.31,0,0,1,262.74,137.42Zm18.27,1c-0.31,4-4.37,4.32-5.31,3.4s-2-2.16-.43-5.31a12,12,0,0,1,4.24-4.09A12.34,12.34,0,0,1,281,138.39Z" transform="translate(8.5 8.5)"/><path class="cls-5" d="M179.26,114c-3.93-1.17-2.79-7-1.08-9.9s4.43-6.48,7.05-6.33,2.67,2.94,2.37,5.49-1.65,8.31-2.19,11.28,0.09,3.48,1.92,4.69a75.35,75.35,0,0,1,2.13-11.41c1.26-4.2,3-7.2,4.53-8.64s1.92-.39,1.59,3.27-1.26,8.85-1.8,11.52,0.24,3.66,2.19,4.29A43.77,43.77,0,0,1,198.19,108C200,102.83,202,99,202.9,99.08s0.57,2.58-.21,7.38-1.83,9-.06,11.19a3.75,3.75,0,0,0,3.93,1.53s-1.8-.06-2.37-2.64,1.29-12.24,1.5-13.44,1.11-6.18-1.65-6-4.47,3.84-6.9,10.35c0.69-5.07,2.4-10.11-1-10.2s-6.3,6.18-6.3,6.18,0.48-4.89-2.67-6.12c-4.45-1.74-9.39,3-11.34,7.53s-1.44,8-.12,9.39S180.15,114.31,179.26,114Z" transform="translate(8.5 8.5)"/><path class="cls-5" d="M205.3,110a1.3,1.3,0,0,0,1.27,1.35,3.93,3.93,0,0,0,.87.07,3.56,3.56,0,0,0,1.85,3c2.57,1.1,4.66-1,7.78-5.92a36,36,0,0,0,2.08-3.7,4.5,4.5,0,0,0,1,.17,28.7,28.7,0,0,0-1,3.15c-0.38,1.57.1,4.54,2.7,3.85,1.9-.51,4.68-5.13,6.37-9.22a6.75,6.75,0,0,0,1.52.35,13.4,13.4,0,0,0-1.49,5.14c0,1.51,1,3.24,3.08,1.53a12,12,0,0,0,2.51-3.53c-0.11,1.61.18,3,1.56,3.11,2.17,0.1,4.16-4.5,5-6.72,0,1.32-.14,2.21-0.32,4.07a17.28,17.28,0,0,1-.54,2.81c-1.33.74-2.68,1.39-3.83,2-2.86,1.48-3,3.22-2,4.43s4.34,1.62,6.73-4.28q0.3-.75.55-1.5a14.86,14.86,0,0,0,5.23-4.8,4,4,0,0,0,.43-4.27c-0.29-.55-0.94-0.52-2,0.36,1.33,0.16,1.69,1.24-.11,4a10.72,10.72,0,0,1-3,2.85,31.7,31.7,0,0,0,1-9.4c-0.07-1.15-2.16-.72-2.16-0.72,0,0.81,0,1.5,0,2.1-0.9,2.63-3.54,8.55-4.61,8.12-1.26-.52.9-5.87,1.35-7.54S234.88,99,234.88,99c0.38,0.49.13,1.71-.16,3-0.09.39-.33,1.25-0.53,2.25-0.63,1.19-3.08,5.64-4.08,5.45-1.15-.22,1.15-5.4,3.37-7.56,0,0-.94-1.87-2.47-0.63a4,4,0,0,0-.76.87,6.17,6.17,0,0,1-1.68-.31,17.54,17.54,0,0,0,1.16-4.16c0.38-3.85-2.7-3.37-3.6-1.6-0.71,1.39-1.16,4.62,1.39,6.1-1.31,3.37-4.16,9.26-6.3,8.57-2-.64,3.08-8.35,3.08-8.35s-0.94-1.71-2.27-.77a5.77,5.77,0,0,0-1.51,2.29,3.75,3.75,0,0,1-1-.09,17.83,17.83,0,0,0,1.39-4.34c0.16-.88.15-3.41-1.78-2.83s-3,3.17-2.22,5.74a3.1,3.1,0,0,0,1.39,1.82,47.84,47.84,0,0,1-4.41,7c-1.89,2.45-4.58,3-4.54-.46a8.91,8.91,0,0,0,2.79-1.88c0.47-.52,3.62-3.76,1.84-5.65s-4.57,0-5.71,2.5a11,11,0,0,0-.88,4.53A3.21,3.21,0,0,1,205.3,110Zm31.88,4.91c-1,1.31-2.77,1.35-2.88-.16-0.1-1.36,2.06-2.24,4.75-3.57A14.72,14.72,0,0,1,237.18,114.86Zm-10.06-14.08c-0.7-1.78.67-5.18,1.37-5.09s0.27,2.72-.34,4.86c-0.07.26-.2,0.63-0.36,1.07A1.88,1.88,0,0,1,227.12,100.77Zm-9.31,1.55c-0.38-2.32,1.65-5.26,2-4.5,0.55,1.37-.08,3.56-1.13,5.82A1.93,1.93,0,0,1,217.81,102.32Zm-5.22,1.87c0.68,0.23.61,2.61-2.09,4.75a9.61,9.61,0,0,1-1.07.74C209.89,106.32,212,104,212.59,104.19Z" transform="translate(8.5 8.5)"/></svg>